<svg class="animated" id="freepik_stories-boat-captain" xmlns="http://www.w3.org/2000/svg" viewBox="0 0 500 500" version="1.1" xmlns:xlink="http://www.w3.org/1999/xlink" xmlns:svgjs="http://svgjs.com/svgjs"><style>svg#freepik_stories-boat-captain:not(.animated) .animable {opacity: 0;}svg#freepik_stories-boat-captain.animated #freepik--Birds--inject-16 {animation: 1.5s Infinite  linear floating;animation-delay: 0s;}svg#freepik_stories-boat-captain.animated #freepik--Character--inject-16 {animation: 1.5s Infinite  linear floating;animation-delay: 0s;}svg#freepik_stories-boat-captain.animated #freepik--Water--inject-16 {animation: 1.5s Infinite  linear floating;animation-delay: 0s;}            @keyframes floating {                0% {                    opacity: 1;                    transform: translateY(0px);                }                50% {                    transform: translateY(-10px);                }                100% {                    opacity: 1;                    transform: translateY(0px);                }            }        .animator-hidden { display: none; }</style><g id="freepik--background-complete--inject-16" class="animable animator-hidden" style="transform-origin: 250.002px 187.18px;"><path d="M462.92,175.6c.55,0,.6-1.09,0-1.17-2.59-.33-5.18-2.64-7.77-3a23.2,23.2,0,0,1-7.43-1.77c-3.85-1.94-6.25-5.81-10.24-7.66-7-3.26-14.2-1.86-21,1a24.1,24.1,0,0,1-12.87,1.89c-4-.51-7.85-1.6-11.81-2.17a23.44,23.44,0,0,0-10.6.51c-3.56,1.15-6.61,3.38-10,5-4.41,2.12-8.76,1.76-13.51,1.9-3.42.1-10.56,2.26-10.56,4.56C347.14,176.26,456.14,175.6,462.92,175.6Z" style="fill: rgb(235, 235, 235); transform-origin: 405.241px 167.929px;" id="el7wyktgaap3b" class="animable"></path><path d="M215.69,329.69c.55,0,.6-1.09,0-1.17-2.59-.33-5.19-2.64-7.77-3a23.07,23.07,0,0,1-7.43-1.77c-3.86-1.94-6.26-5.81-10.24-7.66-7-3.26-14.2-1.86-21,1A24.1,24.1,0,0,1,156.34,319c-4-.5-7.84-1.6-11.81-2.17a23.44,23.44,0,0,0-10.6.51c-3.55,1.15-6.61,3.38-10,5-4.41,2.13-8.76,1.76-13.51,1.9-3.42.1-10.56,2.26-10.56,4.56C99.91,330.35,208.91,329.69,215.69,329.69Z" style="fill: rgb(235, 235, 235); transform-origin: 157.991px 322.02px;" id="els5t7a9o440s" class="animable"></path><path d="M226,66.53c6.31,0,112.54.7,119.22.48.48,0,.73-.72.26-1-4.21-2.09-9-1.67-13.36-3.14-2.57-.87-4.15-2.55-5.94-4.48a12.28,12.28,0,0,0-5.53-3.61,11.71,11.71,0,0,0-6-.19c-2.15.52-4,1.75-6.08,2.53-5.1,1.92-10.06.09-13.7-3.68-3-3.11-6-6.05-10.05-7.73a13.39,13.39,0,0,0-10.64-.15c-3.9,1.77-6.57,5.32-10.23,7.46-4.34,2.53-9.53,1.93-14.32,2.7s-8.47,4.8-12.67,7.12a9,9,0,0,1-4.59,1.42c-.94,0-1.86-.28-2.79-.39-1.44-.18-2.82-.14-3.79,1.07C225.53,65.28,225.58,66.53,226,66.53Z" style="fill: rgb(235, 235, 235); transform-origin: 285.681px 55.7921px;" id="eldsh30wj0y48" class="animable"></path><path d="M292.11,142.57c4.61,0,82.16.51,87,.36.35,0,.54-.53.19-.7-3.07-1.52-6.56-1.22-9.75-2.29a10.39,10.39,0,0,1-4.34-3.27,9,9,0,0,0-4-2.64,8.64,8.64,0,0,0-4.4-.14,38.16,38.16,0,0,0-4.44,1.85c-3.73,1.4-7.35.07-10-2.69-2.19-2.27-4.35-4.42-7.33-5.64a9.77,9.77,0,0,0-7.77-.11c-2.84,1.29-4.8,3.88-7.47,5.44-3.17,1.86-7,1.42-10.45,2s-6.19,3.5-9.26,5.2a6.52,6.52,0,0,1-3.34,1,20,20,0,0,1-2-.28,2.79,2.79,0,0,0-2.77.78C291.77,141.66,291.8,142.57,292.11,142.57Z" style="fill: rgb(235, 235, 235); transform-origin: 335.666px 134.753px;" id="elmsuj2aaxfe" class="animable"></path><path d="M50.82,294.7c4.61,0,82.17.51,87.05.36.35,0,.53-.53.19-.7-3.08-1.52-6.56-1.22-9.76-2.29A10.34,10.34,0,0,1,124,288.8a9.05,9.05,0,0,0-4-2.64,8.49,8.49,0,0,0-4.39-.13,35.79,35.79,0,0,0-4.44,1.84c-3.73,1.41-7.35.07-10-2.69-2.19-2.27-4.35-4.41-7.33-5.64a9.77,9.77,0,0,0-7.77-.11c-2.85,1.29-4.8,3.89-7.47,5.44-3.17,1.86-7,1.42-10.46,2s-6.18,3.5-9.25,5.2a6.55,6.55,0,0,1-3.34,1,20,20,0,0,1-2-.28,2.79,2.79,0,0,0-2.77.78C50.49,293.79,50.52,294.7,50.82,294.7Z" style="fill: rgb(235, 235, 235); transform-origin: 94.4098px 286.883px;" id="elhhdujbhi9g8" class="animable"></path><path d="M38.57,130.66H170.26c.53,0,.73-.56.2-.81-4.72-2.22-10-1.64-14.89-3.18-2.87-.9-4.66-2.73-6.69-4.83a13.68,13.68,0,0,0-6.21-3.87,12.93,12.93,0,0,0-6.68-.07c-2.38.62-4.43,2-6.69,2.94-5.61,2.25-11.15.34-15.28-3.77-3.41-3.38-6.75-6.57-11.32-8.33a14.76,14.76,0,0,0-11.8.08c-4.28,2.05-7.17,6-11.18,8.5-4.75,2.91-10.52,2.36-15.81,3.32s-9.72,3.25-14.32,5.92a9.91,9.91,0,0,1-5.05,1.68,29.45,29.45,0,0,1-3.1-.37c-1.61-.17-3.14-.09-4.19,1.27C37,129.47,35.47,130.66,38.57,130.66Z" style="fill: rgb(235, 235, 235); transform-origin: 103.712px 119.105px;" id="el0ulowgnwil19" class="animable"></path></g><g id="freepik--Birds--inject-16" class="animable" style="transform-origin: 249.98px 188.048px;"><path d="M381.17,72.26a20.87,20.87,0,0,1,2.66-1.14,11.6,11.6,0,0,1,2.9-.67,2.72,2.72,0,0,1,.9.1l.27.13.18.13c.12.09.21.17.31.26a13.25,13.25,0,0,1,1.06,1.06c.65.74,1.23,1.5,1.81,2.29l-.72-.25a21.35,21.35,0,0,1,3-.63,13.15,13.15,0,0,1,1.55-.11,7.92,7.92,0,0,1,.82.06,2.36,2.36,0,0,1,.44.11,4.54,4.54,0,0,1,.45.21,5.23,5.23,0,0,1,1.17,1.12,14.6,14.6,0,0,1,.87,1.24,18.93,18.93,0,0,1,1.38,2.64c-.64-.76-1.25-1.53-1.91-2.25a14,14,0,0,0-1-1,5.25,5.25,0,0,0-1-.81,2.72,2.72,0,0,0-1.16-.11,9.53,9.53,0,0,0-1.38.19c-.93.16-1.88.39-2.79.64l-.46.13-.26-.38c-.53-.76-1.11-1.52-1.69-2.24a11.37,11.37,0,0,0-.89-1l-.23-.22-.11-.09,0,0a1.44,1.44,0,0,0-.51-.11,14.59,14.59,0,0,0-2.73.27C383.05,71.89,382.12,72.09,381.17,72.26Z" style="fill: rgb(38, 50, 56); transform-origin: 390.695px 74.6278px;" id="elyh4yx2rhvtr" class="animable"></path><path d="M391.62,100.51a32.26,32.26,0,0,1,3.58-2.44,16.66,16.66,0,0,1,4.06-1.83,3.83,3.83,0,0,1,1.36-.12,2.17,2.17,0,0,1,.44.11l.3.14c.2.09.36.19.53.28a21.58,21.58,0,0,1,1.86,1.26c1.18.89,2.25,1.84,3.34,2.83l-1.14-.16a32.45,32.45,0,0,1,4.17-1.78,18,18,0,0,1,2.24-.61,7.78,7.78,0,0,1,1.23-.16,5.39,5.39,0,0,1,.68,0,4.62,4.62,0,0,1,.71.18,7.69,7.69,0,0,1,2,1.31,20.37,20.37,0,0,1,1.65,1.56,28.25,28.25,0,0,1,2.8,3.48c-1.16-.94-2.29-1.88-3.46-2.75a20.75,20.75,0,0,0-1.76-1.24,7.11,7.11,0,0,0-1.77-.88,3.92,3.92,0,0,0-1.73.17,17.18,17.18,0,0,0-2,.68c-1.32.52-2.64,1.13-3.91,1.76l-.64.32-.49-.48c-1-1-2.07-1.91-3.13-2.8A16.73,16.73,0,0,0,401,98.12a3.6,3.6,0,0,0-.39-.25l-.19-.1s0,0-.07,0a2,2,0,0,0-.77,0,20.83,20.83,0,0,0-3.95,1.19C394.28,99.42,393,100,391.62,100.51Z" style="fill: rgb(38, 50, 56); transform-origin: 406.525px 100.332px;" id="elaz3d9mdvrpr" class="animable"></path><path d="M107.27,298.62a23.17,23.17,0,0,1,2.69-1.07,11,11,0,0,1,2.92-.59,2.46,2.46,0,0,1,.89.12.92.92,0,0,1,.28.14l.17.13c.12.09.21.17.31.26a13,13,0,0,1,1,1.1c.64.75,1.2,1.52,1.76,2.32l-.71-.27a22.82,22.82,0,0,1,3-.54,11.34,11.34,0,0,1,1.55-.07,4.65,4.65,0,0,1,.82.08,2.57,2.57,0,0,1,.44.11,3.68,3.68,0,0,1,.44.23,5.17,5.17,0,0,1,1.14,1.15,14.37,14.37,0,0,1,.84,1.25,19.53,19.53,0,0,1,1.31,2.68c-.62-.78-1.21-1.56-1.85-2.29a14.28,14.28,0,0,0-1-1.07,4.71,4.71,0,0,0-1-.83,2.66,2.66,0,0,0-1.16-.15,11.39,11.39,0,0,0-1.39.16c-.93.14-1.88.35-2.8.57l-.46.11-.25-.38c-.52-.78-1.07-1.55-1.63-2.29a13.11,13.11,0,0,0-.87-1.05l-.22-.22-.11-.09a.07.07,0,0,0,0,0,1.24,1.24,0,0,0-.5-.11,13.74,13.74,0,0,0-2.75.19C109.17,298.3,108.23,298.47,107.27,298.62Z" style="fill: rgb(38, 50, 56); transform-origin: 116.695px 301.303px;" id="el3602kpzg8q7" class="animable"></path><path d="M78.53,282.92a32.8,32.8,0,0,1,3.28-2.83,16.7,16.7,0,0,1,3.84-2.27,3.82,3.82,0,0,1,1.33-.27,2.54,2.54,0,0,1,.45.06l.31.11a4.82,4.82,0,0,1,.57.22,19.65,19.65,0,0,1,2,1c1.26.75,2.44,1.58,3.62,2.44l-1.14,0a34.68,34.68,0,0,1,3.94-2.23,18.68,18.68,0,0,1,2.16-.86,10,10,0,0,1,1.2-.29,5,5,0,0,1,.68,0,4.57,4.57,0,0,1,.73.1,7.9,7.9,0,0,1,2.18,1.06c.64.43,1.23.9,1.81,1.37a28.48,28.48,0,0,1,3.16,3.15c-1.25-.8-2.47-1.62-3.73-2.35-.63-.37-1.26-.73-1.89-1a7.42,7.42,0,0,0-1.86-.68,4.16,4.16,0,0,0-1.71.36,15.34,15.34,0,0,0-1.88.9c-1.25.66-2.5,1.42-3.69,2.19l-.6.38-.55-.42c-1.1-.84-2.27-1.66-3.42-2.43a20.42,20.42,0,0,0-1.74-1.07c-.14-.06-.29-.15-.43-.2l-.19-.08s0,0-.07,0a2.09,2.09,0,0,0-.77.09,20.86,20.86,0,0,0-3.79,1.62C81.05,281.54,79.81,282.24,78.53,282.92Z" style="fill: rgb(38, 50, 56); transform-origin: 93.59px 280.615px;" id="el368kg1yni57" class="animable"></path><path d="M357.82,93.58a31.37,31.37,0,0,1,2.69-3.4,16.76,16.76,0,0,1,3.34-3,3.71,3.71,0,0,1,1.25-.52,1.72,1.72,0,0,1,.46,0l.33,0a5.59,5.59,0,0,1,.59.11,21.65,21.65,0,0,1,2.15.65c1.39.5,2.7,1.09,4,1.71l-1.12.18A31.22,31.22,0,0,1,375,86.45a17.53,17.53,0,0,1,1.95-1.25,7.76,7.76,0,0,1,1.13-.51,5.74,5.74,0,0,1,.66-.18,5.85,5.85,0,0,1,.73,0,7.88,7.88,0,0,1,2.34.64,21.32,21.32,0,0,1,2,1,28.27,28.27,0,0,1,3.71,2.49c-1.38-.55-2.74-1.12-4.12-1.6-.68-.25-1.36-.48-2.05-.66a7.54,7.54,0,0,0-1.95-.32,3.93,3.93,0,0,0-1.6.68A16.23,16.23,0,0,0,376.12,88c-1.1.88-2.19,1.86-3.21,2.84l-.51.49-.62-.31c-1.24-.62-2.54-1.2-3.82-1.74-.64-.27-1.29-.53-1.91-.72a4.48,4.48,0,0,0-.46-.12l-.2,0s0,0-.08,0a2.23,2.23,0,0,0-.74.23,21.36,21.36,0,0,0-3.41,2.31C360,91.75,358.94,92.67,357.82,93.58Z" style="fill: rgb(38, 50, 56); transform-origin: 372.67px 89.0393px;" id="elps6jhqm54u9" class="animable"></path></g><g id="freepik--Character--inject-16" class="animable" style="transform-origin: 247.43px 249.655px;"><polygon points="134.25 25.31 128.52 25.31 124.2 383.77 138.57 383.77 134.25 25.31" style="fill: #90CAF9; transform-origin: 131.385px 204.54px;" id="el9cin2pv57ls" class="animable"></polygon><g id="el3aog94n2c2f"><polygon points="134.25 25.31 128.52 25.31 124.2 383.77 138.57 383.77 134.25 25.31" style="opacity: 0.6; transform-origin: 131.385px 204.54px;" class="animable" id="elvtgcei2jbg"></polygon></g><path d="M128.29,40.75s-9-6-14.9-6-13,8.62-26.59,8.62-26.27-11-26.27-11,11,8.24,6.65,13.58-16.63,2.89-16.63,2.89S72.43,63.64,89.42,63.64,111.2,54.13,116.8,52.5c4.19-1.22,11.36,2.29,11.36,2.29V52.84s-7.53-5.39-7.53-9.69,7.65-.51,7.65-.51Z" style="fill: rgb(38, 50, 56); transform-origin: 89.42px 48.005px;" id="elherwet50ycj" class="animable"></path><path d="M227.1,125.58c.07,20.89-20.52,47.05-20.52,47.05l-3.92.1S199,144.9,178.27,144.9c-50,0-104.67,31.85-104.67,31.85H70.82S138.55,112.74,75,82l97.2-7.87C201.84,90.18,227,105.06,227.1,125.58Z" style="fill: rgb(38, 50, 56); transform-origin: 148.96px 125.44px;" id="el86er0j2s2q7" class="animable"></path><g id="el6j01smq8jcq"><path d="M227.11,125.58c.06,20.89-20.52,47.05-20.52,47.05l-3.93.1s-3.69-27.84-24.39-27.84c-50,0-104.66,31.85-104.66,31.85H70.83S138.55,112.74,75,82L92.8,80.58S164.85,130.8,192,125.45s-19.82-51.3-19.82-51.3C201.84,90.17,227,105.05,227.11,125.58Z" style="opacity: 0.2; transform-origin: 148.97px 125.445px;" class="animable" id="el02vh3n9mbmmk"></path></g><path d="M74,86.58a3.35,3.35,0,1,1,3.52-3.35A3.44,3.44,0,0,1,74,86.58Zm0-5.69a2.35,2.35,0,1,0,2.52,2.34A2.44,2.44,0,0,0,74,80.89Z" style="fill: rgb(38, 50, 56); transform-origin: 74.17px 83.2326px;" id="elg13ng0pgbbo" class="animable"></path><path d="M69.29,180.09a3.35,3.35,0,1,1,3.53-3.34A3.44,3.44,0,0,1,69.29,180.09Zm0-5.69a2.35,2.35,0,1,0,2.53,2.35A2.44,2.44,0,0,0,69.29,174.4Z" style="fill: rgb(38, 50, 56); transform-origin: 69.47px 176.743px;" id="el5j1nug5k756" class="animable"></path><path d="M209,176a3.35,3.35,0,1,1,3.52-3.35A3.44,3.44,0,0,1,209,176Zm0-5.69a2.35,2.35,0,1,0,2.52,2.34A2.45,2.45,0,0,0,209,170.29Z" style="fill: rgb(38, 50, 56); transform-origin: 209.17px 172.653px;" id="el56fgzywewkf" class="animable"></path><path d="M175.7,77.5a3.35,3.35,0,1,1,3.52-3.35A3.44,3.44,0,0,1,175.7,77.5Zm0-5.69a2.35,2.35,0,1,0,2.52,2.34A2.44,2.44,0,0,0,175.7,71.81Z" style="fill: rgb(38, 50, 56); transform-origin: 175.87px 74.1526px;" id="eltj76vfbsm3" class="animable"></path><path d="M75.31,82l55.53-29.08L174,74.51Zm55.54-28L80.07,80.65l90.26-6.86Z" style="fill: rgb(38, 50, 56); transform-origin: 124.655px 67.46px;" id="el4dkci08yof8" class="animable"></path><path d="M257.32,234.67c0,42.57-90.5,110.32-90.5,110.32l-5.13.94s29.83-35.11,11.82-44.71-91.58,52.95-91.58,52.95H79.15s56.12-78.35-8.33-177.42l135.76-4.12C236.26,188.66,257.32,214.15,257.32,234.67Z" style="fill: rgb(38, 50, 56); transform-origin: 164.07px 263.4px;" id="elm52frc45zrb" class="animable"></path><g id="eljuxe8podqgq"><path d="M257.33,234.68c0,42.56-90.51,110.31-90.51,110.31l-5.13.94s29.83-35.11,11.82-44.71-91.58,52.95-91.58,52.95H79.15s56.11-78.35-8.32-177.43c0,0,111,100.83,141.81,86.67s20.75-59.8-6-90.78C236.26,188.66,257.33,214.15,257.33,234.68Z" style="opacity: 0.2; transform-origin: 164.08px 263.4px;" class="animable" id="elnq84wkb487"></path></g><path d="M217.38,246.66c-.73-.92,3.32-6.35.56-8.41-2.92-2.08-5.18-.44-9.59,10.13-.45,4.76-42.89,24.6-45.42,22.86-1.6-.38-8.88-2.49-12.07,1.11-3.39,3.36,3.78,2.92,3.58,3.51-.09.79-9.78,4.38-7.15,5,3,1.19,13.15-3.78,15.52-4.91,4,1.2,47-19.9,48.53-21.31,2.73-.15,9.61,1.8,11.28-2.9C224.82,244.51,217.88,247.33,217.38,246.66Z" style="fill: rgb(255, 255, 255); transform-origin: 184.944px 259.255px;" id="el4866g0eiofq" class="animable"></path><path d="M203.42,233.93s11.07-7.19,7.42-13.21c-2.19-6.56-14.64-18.9-24.73-20.56-10.31-1.7-23.27,0-24.73,3.21s-3.28,17.8-1,23c3.25,7.39,13.42,10,14.8,10.69.23,0,.47,9.78,1.06,10.69,2.39,2.91,25.27,1,28-4.22C205.21,241.9,203.58,233.92,203.42,233.93Z" style="fill: rgb(255, 255, 255); transform-origin: 185.44px 224.301px;" id="elyr1dctk4qn" class="animable"></path><path d="M162.4,249.33c-1,.86-7.47,3.41-8,6.58s-.59,5.54,11.17,1.93c.56.17,30.2,15.72,30.06,16.64.64,1.41-5.82,8.19.39,7.13,6.43-.81,6-5.84,7.42-7.28s8,.46,10.16-3.67-8.29-.49-10.75-1.56c-2-.9-32.66-16.19-33.53-17.93,0-1.52.7-12-4.79-11C159.47,241.13,163.19,248.8,162.4,249.33Z" style="fill: rgb(255, 255, 255); transform-origin: 184.059px 260.912px;" id="elzn3lk57xw2c" class="animable"></path><path d="M166.34,220.21c-.29,3.94,1,8.48,4.65,10.76s9.82,1.93,10.87-2.12-2-9-6.44-11.22S166.64,216.27,166.34,220.21Z" style="fill: rgb(38, 50, 56); transform-origin: 174.184px 224.403px;" id="ell34myqgz6k" class="animable"></path><path d="M197.13,214.9c-4.35-1.46-6.71.56-6.2,4.83s3.28,9.18,7,10.75,7.48-.81,7.55-5.2S201.46,216.36,197.13,214.9Z" style="fill: rgb(38, 50, 56); transform-origin: 198.171px 222.697px;" id="el3zofb61z3zt" class="animable"></path><path d="M188.3,227.25c1.2,0,4.78,4.08,3.36,5.16-1.15.91-2.6-2.11-2.62-2.11s0,3.49-1.79,2.54C186,232.12,187.24,227.19,188.3,227.25Z" style="fill: rgb(38, 50, 56); transform-origin: 189.357px 230.127px;" id="elykxpgezcor" class="animable"></path><path d="M78.42,359.64a3.35,3.35,0,1,1,3.52-3.35A3.44,3.44,0,0,1,78.42,359.64Zm0-5.69a2.35,2.35,0,1,0,2.52,2.34A2.44,2.44,0,0,0,78.42,354Z" style="fill: rgb(38, 50, 56); transform-origin: 78.59px 356.293px;" id="eln3ycjv5649d" class="animable"></path><path d="M161.75,351.48a3.35,3.35,0,1,1,3.52-3.35A3.44,3.44,0,0,1,161.75,351.48Zm0-5.69a2.35,2.35,0,1,0,2.52,2.34A2.44,2.44,0,0,0,161.75,345.79Z" style="fill: rgb(38, 50, 56); transform-origin: 161.92px 348.133px;" id="elof4yggwfsbp" class="animable"></path><g id="elzmlxf0td06m"><rect x="45.33" y="373.43" width="38.84" height="1" style="fill: rgb(38, 50, 56); transform-origin: 64.75px 373.93px; transform: rotate(-52.18deg);" class="animable" id="el7jjvnpmintp"></rect></g><g id="ell8kwrkedcud"><rect x="118.46" y="369.44" width="50.73" height="1" style="fill: rgb(38, 50, 56); transform-origin: 143.825px 369.94px; transform: rotate(-49.71deg);" class="animable" id="elwmq782vq80p"></rect></g><polygon points="290.31 53.65 284.85 53.49 257.93 356.42 271.62 356.83 290.31 53.65" style="fill: #90CAF9; transform-origin: 274.12px 205.16px;" id="elc442bqbcmm6" class="animable"></polygon><g id="elf1spoz9eqwo"><polygon points="290.31 53.65 284.85 53.49 257.93 356.42 271.62 356.83 290.31 53.65" style="opacity: 0.6; transform-origin: 274.12px 205.16px;" class="animable" id="elqgwgykal0y"></polygon></g><path d="M284,65.14s-6.19-5-10.54-5.41-10.18,5.67-20.13,4.83-18.54-9.91-18.54-9.91,7.54,6.89,4,10.63-12.41,1.14-12.41,1.14,15.06,12.44,27.54,13.51,16.65-5.79,20.88-6.67c3.16-.65,8.19,2.43,8.19,2.43l.13-1.46s-5.16-4.53-4.87-7.76,5.66.09,5.66.09Z" style="fill: rgb(38, 50, 56); transform-origin: 255.19px 67.3465px;" id="elmiwn1q7qpik" class="animable"></path><path d="M352.57,239.15c-.05,23.15-38.58,58-38.58,58l-4.25,0s15.9-24.36-6.49-24.92c-44.16-1.1-75.7,38.5-75.7,38.5l-6.05.46s69.05-75.44,1.41-111.52L312.35,193C333.81,203.86,352.61,223.61,352.57,239.15Z" style="fill: rgb(38, 50, 56); transform-origin: 287.035px 252.095px;" id="eln8wwfdkak4e" class="animable"></path><g id="elzirw0lf5j3"><path d="M352.57,239.15c-.05,23.15-38.59,58-38.59,58l-4.24,0s15.9-24.36-6.49-24.92c-44.16-1.11-75.7,38.5-75.7,38.5l-6.06.46s69.06-75.44,1.42-111.53l15.11-.56s64.42,50.72,84.66,46.1c20-4.59-9.72-51.25-10.31-52.13C333.83,203.88,352.61,223.61,352.57,239.15Z" style="opacity: 0.2; transform-origin: 287.03px 252.13px;" class="animable" id="elkvimv4vz96o"></path></g><path d="M221.5,314.81a3.65,3.65,0,1,1,3.77-3.65A3.72,3.72,0,0,1,221.5,314.81Zm0-6.3a2.65,2.65,0,1,0,2.77,2.65A2.71,2.71,0,0,0,221.5,308.51Z" style="fill: rgb(38, 50, 56); transform-origin: 221.62px 311.161px;" id="elusrymruvt8" class="animable"></path><path d="M310.11,301.23a3.65,3.65,0,1,1,3.77-3.65A3.72,3.72,0,0,1,310.11,301.23Zm0-6.3a2.65,2.65,0,1,0,2.77,2.65A2.71,2.71,0,0,0,310.11,294.93Z" style="fill: rgb(38, 50, 56); transform-origin: 310.23px 297.581px;" id="elhmst6cza51j" class="animable"></path><path d="M222.38,203.29a3.66,3.66,0,1,1,3.77-3.65A3.72,3.72,0,0,1,222.38,203.29Zm0-6.31a2.66,2.66,0,1,0,2.77,2.66A2.72,2.72,0,0,0,222.38,197Z" style="fill: rgb(38, 50, 56); transform-origin: 222.49px 199.631px;" id="elw5o998wgymg" class="animable"></path><path d="M313.38,196.67a3.65,3.65,0,1,1,3.78-3.65A3.72,3.72,0,0,1,313.38,196.67Zm0-6.3a2.65,2.65,0,1,0,2.78,2.65A2.72,2.72,0,0,0,313.38,190.37Z" style="fill: rgb(38, 50, 56); transform-origin: 313.51px 193.021px;" id="elmn2cncfiwfj" class="animable"></path><path d="M224.45,199.74,278.77,169l32.72,24.39Zm54.25-29.52-49.88,28.2,79.92-5.8Z" style="fill: rgb(38, 50, 56); transform-origin: 267.97px 184.37px;" id="el4hhdwxj4a3y" class="animable"></path><g id="elunfr7fv5iyh"><rect x="147.64" y="345.07" width="86.02" height="1" style="fill: rgb(38, 50, 56); transform-origin: 190.65px 345.57px; transform: rotate(-48.09deg);" class="animable" id="elcegda78zmo7"></rect></g><g id="el9e79gnwu6xe"><rect x="236.41" y="330.42" width="86.02" height="1" style="fill: rgb(38, 50, 56); transform-origin: 279.42px 330.92px; transform: rotate(-48.11deg);" class="animable" id="elxs6arj3m8x"></rect></g><polygon points="304.88 170.41 255.09 168.91 248.91 141.72 311.72 143.62 304.88 170.41" style="fill: #90CAF9; transform-origin: 280.315px 156.065px;" id="el8h3yioavqoi" class="animable"></polygon><g id="eloqhn7uyk3d"><polygon points="304.88 170.41 255.09 168.91 248.91 141.72 311.72 143.62 304.88 170.41" style="opacity: 0.6; transform-origin: 280.315px 156.065px;" class="animable" id="el6p7up90dywh"></polygon></g><g id="elejbjqsk2xcu"><g style="opacity: 0.2; transform-origin: 280.275px 155.85px;" class="animable" id="elxu2qj6u5fcs"><path d="M305.8,166.81l-.21.81q-25.54-.72-51.15-1.57l-.16-.75Q280,166,305.8,166.81Z" id="elkg4r3ffqgiq" class="animable" style="transform-origin: 280.04px 166.46px;"></path><path d="M267.77,155.58,252,155.25l-.07-.29Z" id="el6trledaqoaj" class="animable" style="transform-origin: 259.85px 155.27px;"></path><path d="M280,156a8.07,8.07,0,0,0-5.4-.16,8.14,8.14,0,0,0,5.4.16Z" id="eluyk8ooi2dpc" class="animable" style="transform-origin: 277.3px 155.918px;"></path><path d="M308.41,156.57l-.11.47c-6.85-.26-13.69-.56-20.54-.86Q298.09,156.34,308.41,156.57Z" id="el7tqqswbddu6" class="animable" style="transform-origin: 298.085px 156.61px;"></path><path d="M311.1,146l-.18.73q-30.63-.85-61.28-1.79l-.19-.86Q280.29,145,311.1,146Z" id="elu6evhle990l" class="animable" style="transform-origin: 280.275px 145.405px;"></path></g></g><path d="M260.24,111s14,27.72,15.51,36.86c2.57,15.52,22.89,70,19.91,103.74-1.73,19.55-47.25,40.07-47.25,40.07s7.59-45.18,8.16-58.08C259.85,160.28,247.79,117.69,260.24,111Z" style="fill: #90CAF9; transform-origin: 272.184px 201.335px;" id="elj02m7hwjs0q" class="animable"></path><g id="elbew6m65yfu7"><path d="M260.24,111s14,27.72,15.51,36.86c2.57,15.52,22.89,70,19.91,103.74-1.73,19.55-47.25,40.07-47.25,40.07s7.59-45.18,8.16-58.08C259.85,160.28,247.79,117.69,260.24,111Z" style="opacity: 0.6; transform-origin: 272.184px 201.335px;" class="animable" id="eljq12xpgb5o8"></path></g><path d="M275.76,147.9c2.56,15.52,22.88,70,19.91,103.73-1.73,19.56-47.25,40.07-47.25,40.07s.16-1,.43-2.65c13.19-6.16,43.32-23.16,44.6-37.61,3-33.79-17.47-88.51-19.89-103.18-1.34-8.1-13.67-31.74-15.18-35.85a8.44,8.44,0,0,1,1.85-1.36l0,0S274.25,138.76,275.76,147.9Z" style="fill: #90CAF9; transform-origin: 272.193px 201.375px;" id="elit8k7bcqk6r" class="animable"></path><path d="M318.89,394.47H270s.38-95,0-97c-.49-2.55-3.38-14.12-7.23-29.22l-3.86-15.06c-3.65-14.21-20.55-74-20.55-74h41.46S313.87,276.86,315.23,297C316.41,314.61,318.89,394.47,318.89,394.47Z" style="fill: rgb(55, 71, 79); transform-origin: 278.625px 286.83px;" id="elwggassi2nii" class="animable"></path><path d="M279.17,290.54c-1.61-7.07-4-14-6.09-20.94q-6.37-21.15-12.81-42.29c-2.14-7-12.09-33.4-13.07-36.9-.4-1.42-.62-.64-.1,1.17,1,3.65,18,55.9,22.32,70.21q3.22,10.77,6.48,21.53a89.18,89.18,0,0,1,2.65,10.41,48.3,48.3,0,0,1,.43,11.14c-.47,7.49-2.05,79.21-2.19,81.1-.05.63.94.58,1,0,.72-16,2.6-81.52,2.6-85.23A45.88,45.88,0,0,0,279.17,290.54Z" style="fill: rgb(38, 50, 56); transform-origin: 263.592px 288.051px;" id="elnhritx9w5zk" class="animable"></path><path d="M275.08,179.29c-2.87,22.26-8.35,58.72-12.34,89-9.36-36.7-24.41-89-24.41-89Z" style="fill: rgb(38, 50, 56); transform-origin: 256.705px 223.79px;" id="el4t3zioki6bf" class="animable"></path><path d="M344.62,439.1c-2.69.88-70.55-4.26-73.46-6.15-.84-.53-.5-10.61-.1-17.72.12-2.29-2.07-24.64-2.07-24.68h47.58l1.87,21.67s21.28,13.44,24.26,15.86S347.32,438.23,344.62,439.1Z" style="fill: rgb(38, 50, 56); transform-origin: 307.489px 414.875px;" id="elkkudj3t1rd" class="animable"></path><path d="M292.57,432.53s.45,6.67,0,6.67h-21c-.59,0-.8-7.39-.8-7.39Z" style="fill: rgb(38, 50, 56); transform-origin: 281.77px 435.505px;" id="elnaki6eni52" class="animable"></path><path d="M344.4,434.27c-12.94-.81-57.19-2.63-70-2.45-.1,0-.11.07,0,.08,12.81,1.09,57.07,2.48,70,2.58C344.67,434.48,344.67,434.29,344.4,434.27Z" style="fill: rgb(38, 50, 56); transform-origin: 309.462px 433.144px;" id="elogb1af4dk8" class="animable"></path><polygon points="262.61 381.85 322.07 381.85 321.19 401.14 265.75 401.14 262.61 381.85" style="fill: rgb(38, 50, 56); transform-origin: 292.34px 391.495px;" id="elfiskon340s" class="animable"></polygon><path d="M279.51,179.28A160.2,160.2,0,0,1,274,209.54c-.36,1.3-.76,2.57-1.18,3.8,0,0-3.67,1.72-10.89,6.14,0,0-.48,16-.95,33.76-.53,19.9-1.07,42.09-1,46.8.42,17.61-1.35,90.51-1.35,90.51H211.11s6.67-84,6.6-90.45c-.09-10.37,2-50,3.9-83.37,0,0-4.4-5.51,2.46-37.43Z" style="fill: rgb(55, 71, 79); transform-origin: 245.31px 284.915px;" id="elx7v9b9gkp6p" class="animable"></path><path d="M228.19,186.38c-.9,27.29-1.85,49.28-3.06,76.56s-2.86,54.73-5.15,82c-1.27,15.25-2.47,36.71-4.12,51.92,0,.11.15.14.16,0,3.56-27.07,5.53-60.54,7.28-87.78s2.93-54.51,3.85-81.79c.52-15.43.92-25.56,1.38-41C228.53,186.15,228.19,186.17,228.19,186.38Z" style="fill: rgb(38, 50, 56); transform-origin: 222.195px 291.577px;" id="el8kk85v1n1lt" class="animable"></path><path d="M230.07,204.11c1.2-.31,2.49-.4,3.71-.6,1-.15,2-.33,3-.55a12.76,12.76,0,0,0,5.23-2.19c2.44-1.92,5.23-11.57,5.58-12.19.58-1.05.76-.12.76,0,0,1.13-2.57,9.58-3.56,11.16-1.81,2.89-5.06,4-8.3,4.46-.93.12-1.87.19-2.8.24a20,20,0,0,1-3.55,0A.17.17,0,0,1,230.07,204.11Z" style="fill: rgb(38, 50, 56); transform-origin: 239.153px 196.302px;" id="elcxn3y87uzqk" class="animable"></path><path d="M272.68,213.57A86.68,86.68,0,0,0,258.9,220a.15.15,0,0,0,.13.28c4.64-2,9.37-3.9,13.9-6.14A.31.31,0,0,0,272.68,213.57Z" style="fill: rgb(38, 50, 56); transform-origin: 265.963px 216.919px;" id="el919h9zctax" class="animable"></path><path d="M274.07,181.79c0-.16-.29-.2-.29,0a152.28,152.28,0,0,1-.78,15.5c-.21,2.39-2.14,15.6-6.28,14.64-.69-.16-1.05-.85-1.16-1.89a17,17,0,0,1,.55-4.05c.46-2.77.83-5.54,1.07-8.34A75.5,75.5,0,0,0,267,182a.14.14,0,0,0-.27,0,142.68,142.68,0,0,1-1.26,21.57c-.52,3.44-2.25,8.61,1.35,9.14s6-8.13,6.47-10.5A78.61,78.61,0,0,0,274.07,181.79Z" style="fill: rgb(38, 50, 56); transform-origin: 269.5px 197.194px;" id="elihlfu7nye6k" class="animable"></path><path d="M266.83,212.26a22.09,22.09,0,0,0-.93,2.74,6.24,6.24,0,0,0-.39,2.25.16.16,0,0,0,.29.06,8,8,0,0,0,1-2.19c.32-.84.65-1.69.94-2.54A.46.46,0,0,0,266.83,212.26Z" style="fill: rgb(38, 50, 56); transform-origin: 266.638px 214.659px;" id="elhtc77makvs" class="animable"></path><polygon points="205.05 383.14 262.17 383.14 259.45 401.36 207.07 401.36 205.05 383.14" style="fill: #90CAF9; transform-origin: 233.61px 392.25px;" id="ely1k7um9o9gj" class="animable"></polygon><g id="elbgf70sz4x66"><polygon points="205.05 383.14 262.17 383.14 259.45 401.36 207.07 401.36 205.05 383.14" style="opacity: 0.6; transform-origin: 233.61px 392.25px;" class="animable" id="el43kr6ylxyi"></polygon></g><polygon points="255.77 401.37 255.77 404.75 243.69 410.92 240.85 439.04 225.05 439.04 222.21 410.92 211.46 404.75 211.46 401.37 255.77 401.37" style="fill: #90CAF9; transform-origin: 233.615px 420.205px;" id="elolp2uwodd1" class="animable"></polygon><g id="elj3ztr7yntn9"><polygon points="255.77 401.37 255.77 404.75 243.69 410.92 240.85 439.04 225.05 439.04 222.21 410.92 211.46 404.75 211.46 401.37 255.77 401.37" style="opacity: 0.6; transform-origin: 233.615px 420.205px;" class="animable" id="elwunleyi5oc"></polygon></g><g id="elt6vxahc2eyq"><rect x="211.45" y="401.36" width="44.31" height="3.38" style="opacity: 0.1; transform-origin: 233.605px 403.05px;" class="animable" id="el8mludp2mtum"></rect></g><rect x="317.07" y="193.74" width="10.65" height="229.12" style="fill: #90CAF9; transform-origin: 322.395px 308.3px;" id="elix5kfajxupg" class="animable"></rect><g id="elxlhl2p0u4l"><rect x="317.07" y="193.74" width="10.65" height="229.12" style="opacity: 0.6; transform-origin: 322.395px 308.3px;" class="animable" id="elvcw0jcnlxbg"></rect></g><g id="elc6wh7dhkdcc"><polygon points="327.73 273.01 317.07 276.43 317.07 193.74 327.73 193.74 327.73 273.01" style="opacity: 0.1; transform-origin: 322.4px 235.085px;" class="animable" id="else8b991zik"></polygon></g><path d="M255.71,129.12c17.27,19.5,36.2,39.56,46.15,38.94,8.37-.53,26-4.42,47.6-11.84,4-1.38-15.63-29.63-18.29-28.31-7.09,3.51-29.57,10-30.87,9.27-1.71-.88-22.07-12.86-35.95-20.25C245.67,107,246.78,119,255.71,129.12Z" style="fill: rgb(235, 148, 129); transform-origin: 299.738px 140.643px;" id="el7w3ns2hzil8" class="animable"></path><path d="M329,126.31l15.83,33.76s-34.05,10.11-45.52,8.5c-8.59-1.21-33.59-24.66-45.46-41.11-12.15-16.83.31-17,10.07-11.22s33.88,19.11,34.64,19.13S329,126.31,329,126.31Z" style="fill: #90CAF9; transform-origin: 296.826px 140.777px;" id="eld8cyqwdds9s" class="animable"></path><g id="elcyblvr9b4hk"><path d="M329,126.31l15.83,33.76s-34.05,10.11-45.52,8.5c-8.59-1.21-33.59-24.66-45.46-41.11-12.15-16.83.31-17,10.07-11.22s33.88,19.11,34.64,19.13S329,126.31,329,126.31Z" style="opacity: 0.3; transform-origin: 296.826px 140.777px;" class="animable" id="el2k0sbcaiehi"></path></g><g id="eljknbie246e"><path d="M253.83,127.46c11.87,16.45,36.87,39.9,45.47,41.11,7,1,22.33-2.39,33.27-5.17l-80.12-50.54C248.06,113.37,246.64,117.5,253.83,127.46Z" style="opacity: 0.1; transform-origin: 290.684px 140.805px;" class="animable" id="el3tynm46npv4"></path></g><polygon points="336.72 166.34 334.78 160.19 341.14 155.39 333.42 155.88 324.05 126.08 335.6 119.83 349.96 164.08 336.72 166.34" style="fill: #90CAF9; transform-origin: 337.005px 143.085px;" id="el30utvc8jn36" class="animable"></polygon><path d="M280.6,190.16c-.4.47-61.11,3.8-61.32,3.56a23.86,23.86,0,0,1-.4-9c2.92-17.58,14.29-62,24.79-73.34,3.82-4.13,14.15-1.84,15.55-.71,9.39,7.59,21.08,58.22,23.55,71.66A10.2,10.2,0,0,1,280.6,190.16Z" style="fill: rgb(235, 235, 235); transform-origin: 250.748px 151.372px;" id="elocby76qu6xe" class="animable"></path><path d="M256.45,132.61a1.76,1.76,0,1,1-1.71-2.18A2,2,0,0,1,256.45,132.61Z" style="fill: #90CAF9; transform-origin: 254.72px 132.19px;" id="elrgslg1baue8" class="animable"></path><path d="M255.71,132.61a1,1,0,1,1-1-1.24A1.12,1.12,0,0,1,255.71,132.61Z" style="fill: rgb(235, 235, 235); transform-origin: 254.728px 132.37px;" id="elhmwzw254wp7" class="animable"></path><path d="M266.59,131.68a1.76,1.76,0,1,1-1.71-2.18A2,2,0,0,1,266.59,131.68Z" style="fill: #90CAF9; transform-origin: 264.86px 131.26px;" id="el8dc3kqid43j" class="animable"></path><path d="M265.85,131.68a1,1,0,1,1-1-1.25A1.13,1.13,0,0,1,265.85,131.68Z" style="fill: rgb(235, 235, 235); transform-origin: 264.87px 131.43px;" id="elmmjqttjuep" class="animable"></path><g id="elcdi7czsixu9"><rect x="256.02" y="131.49" width="7.58" height="1.36" style="fill: #90CAF9; transform-origin: 259.81px 132.17px; transform: rotate(-4.00417deg);" class="animable" id="eloi1z1zoymin"></rect></g><path d="M257.33,138.88a1.76,1.76,0,1,1-1.71-2.18A2,2,0,0,1,257.33,138.88Z" style="fill: #90CAF9; transform-origin: 255.6px 138.46px;" id="el6jr267isujg" class="animable"></path><path d="M256.6,138.88a1,1,0,1,1-1-1.25A1.14,1.14,0,0,1,256.6,138.88Z" style="fill: rgb(235, 235, 235); transform-origin: 255.619px 138.63px;" id="el7eem9jc7laa" class="animable"></path><ellipse cx="265.76" cy="137.94" rx="1.71" ry="2.18" style="fill: #90CAF9; transform-origin: 265.76px 137.94px;" id="elvlfjetvnxea" class="animable"></ellipse><ellipse cx="265.76" cy="137.94" rx="0.98" ry="1.24" style="fill: rgb(235, 235, 235); transform-origin: 265.76px 137.94px;" id="el3awhyf3v9qv" class="animable"></ellipse><g id="elyjm816bn0r"><rect x="256.9" y="137.75" width="7.58" height="1.36" style="fill: #90CAF9; transform-origin: 260.69px 138.43px; transform: rotate(-4.19deg);" class="animable" id="el38fqbrrzpqy"></rect></g><path d="M258.21,145.14A1.76,1.76,0,1,1,256.5,143,2,2,0,0,1,258.21,145.14Z" style="fill: #90CAF9; transform-origin: 256.474px 144.76px;" id="elkna0rb63wo" class="animable"></path><path d="M257.48,145.14a1,1,0,1,1-1-1.24A1.13,1.13,0,0,1,257.48,145.14Z" style="fill: rgb(235, 235, 235); transform-origin: 256.498px 144.9px;" id="el8dg23rzkud" class="animable"></path><path d="M268.35,144.21a1.76,1.76,0,1,1-1.71-2.18A2,2,0,0,1,268.35,144.21Z" style="fill: #90CAF9; transform-origin: 266.62px 143.79px;" id="elpeehfiqjlq" class="animable"></path><path d="M267.62,144.21a1,1,0,1,1-1.95,0,1,1,0,1,1,1.95,0Z" style="fill: rgb(235, 235, 235); transform-origin: 266.645px 144.21px;" id="eloszncwyf8mm" class="animable"></path><g id="el384udd5itpd"><rect x="257.79" y="144.02" width="7.58" height="1.36" style="fill: #90CAF9; transform-origin: 261.58px 144.7px; transform: rotate(-4.18deg);" class="animable" id="elfecm2qva9pp"></rect></g><path d="M259.09,151.41a1.76,1.76,0,1,1-1.71-2.18A2,2,0,0,1,259.09,151.41Z" style="fill: #90CAF9; transform-origin: 257.36px 150.99px;" id="elu8yc8rml81" class="animable"></path><ellipse cx="257.38" cy="151.41" rx="0.98" ry="1.24" style="fill: rgb(235, 235, 235); transform-origin: 257.38px 151.41px;" id="el3wsfytmwabq" class="animable"></ellipse><path d="M269.23,150.47a1.75,1.75,0,1,1-1.71-2.17A2,2,0,0,1,269.23,150.47Z" style="fill: #90CAF9; transform-origin: 267.51px 150.05px;" id="elasfga0rly6j" class="animable"></path><path d="M268.5,150.47a1,1,0,1,1-1-1.24A1.14,1.14,0,0,1,268.5,150.47Z" style="fill: rgb(235, 235, 235); transform-origin: 267.517px 150.23px;" id="elfpfprbo1b" class="animable"></path><g id="el08cw8swlu7ka"><rect x="258.67" y="150.28" width="7.58" height="1.36" style="fill: #90CAF9; transform-origin: 262.46px 150.96px; transform: rotate(-4.18deg);" class="animable" id="elsvsctuynvcd"></rect></g><path d="M216.83,196.9c-.35-.26.37-8.67,1.39-10.87,0,0,21.88,1.33,39.31.76,13-.43,26.12-2.72,26.23-2.36s1.66,9.08,1.44,9.84S267,197.35,255.81,198,218,197.77,216.83,196.9Z" style="fill: rgb(38, 50, 56); transform-origin: 250.981px 191.308px;" id="elein867jhvdi" class="animable"></path><path d="M275.42,184.76c-.82-.27-13.23,1-13.84,1.42-1,.75.26,11.6.56,11.88s14.34-1.43,14.71-1.78S276.26,185,275.42,184.76Zm-.1,10.34a100.55,100.55,0,0,1-11.93,1.45c-.24-.2-1.23-8.59-.4-9.18a75.49,75.49,0,0,1,11.24-1.17C274.9,186.41,275.63,194.84,275.32,195.1Z" style="fill: #90CAF9; transform-origin: 269.066px 191.407px;" id="ele86zahhbqeu" class="animable"></path><g id="el4uw4vcubdml"><rect x="271.79" y="190.01" width="3.96" height="1.51" style="fill: #90CAF9; transform-origin: 273.77px 190.765px; transform: rotate(-6.42deg);" class="animable" id="elj2yozgor6fc"></rect></g><path d="M257.84,192.38a.57.57,0,0,1-.49.65.58.58,0,0,1-.65-.49.59.59,0,0,1,.49-.66A.58.58,0,0,1,257.84,192.38Z" style="fill: rgb(38, 50, 56); transform-origin: 257.271px 192.455px;" id="el9xwprl2nlpl" class="animable"></path><path d="M251.82,192.63a.58.58,0,1,1-.65-.49A.58.58,0,0,1,251.82,192.63Z" style="fill: rgb(38, 50, 56); transform-origin: 251.246px 192.715px;" id="elt5mresx9ym" class="animable"></path><path d="M246.13,109.49s5.77,29.82,5.78,39.08c0,15.74-3.65,76.48-12.06,109.25-4.88,19-53.13,31.87-53.13,31.87s14.82-43.34,17.48-56C219.33,161.86,232.76,114,246.13,109.49Z" style="fill: #90CAF9; transform-origin: 219.315px 199.59px;" id="elnahfvd0ay8" class="animable"></path><g id="ely1atdj9hjf"><path d="M246.13,109.49s5.77,29.82,5.78,39.08c0,15.74-3.65,76.48-12.06,109.25-4.88,19-53.13,31.87-53.13,31.87s14.82-43.34,17.48-56C219.33,161.86,232.76,114,246.13,109.49Z" style="opacity: 0.3; transform-origin: 219.315px 199.59px;" class="animable" id="elhdmnc6hmwx7"></path></g><path d="M251.92,148.58c0,15.73-3.67,76.47-12.07,109.23-4.88,19-53.12,31.88-53.12,31.88s.32-.93.86-2.55c14-3.94,46.5-15.83,50.11-29.88,8.42-32.85,12-93.81,12-108.68,0-8.22-4.8-33.74-5.62-38.05a8.43,8.43,0,0,1,2.05-1h0S251.91,139.31,251.92,148.58Z" style="fill: #90CAF9; transform-origin: 219.325px 199.61px;" id="eliibk59k5pei" class="animable"></path><path d="M280.85,173.47s2-27.48.23-29.88c-1.2-1.58-8.89-5-8.89-5s8.69-14,6.69-16.86c-1.8-2.58-19.66-11-19.66-11s6,15.66,8.78,24.19C269.54,139.63,280.85,173.47,280.85,173.47Z" style="fill: #90CAF9; transform-origin: 270.516px 142.1px;" id="elgutom8egald" class="animable"></path><path d="M240.63,91.61s-7.21,5-8,5-2.31-3.68-2.28-4.33,10-1.71,10-1.71Z" style="fill: #90CAF9; transform-origin: 235.49px 93.59px;" id="el27nittr33i5" class="animable"></path><g id="elltw5jft0xla"><path d="M240.34,90.53l.15.56s-8.34,2.87-9.22,1.79S240.34,90.53,240.34,90.53Z" style="opacity: 0.1; transform-origin: 235.852px 91.8265px;" class="animable" id="elqhth9vls9ib"></path></g><path d="M241.56,91.57s-1,8.71-1.49,9.26-4.3-.68-4.76-1.13,5.24-8.63,5.24-8.63Z" style="fill: #90CAF9; transform-origin: 238.422px 96.0195px;" id="elgqy54hie8e" class="animable"></path><g id="eln5jyabcs3sc"><path d="M240.55,91.07l.52.26s-3.32,8.17-4.7,8.13S240.55,91.07,240.55,91.07Z" style="opacity: 0.1; transform-origin: 238.61px 95.2651px;" class="animable" id="eli0tx2jx49wf"></path></g><path d="M256.94,122.06c-4.66.82-10.08-5.25-11.94-10-.13-.33.74-3.47,1.62-7.33.52-2.35,1-5,1.36-7.4L262.75,103a39,39,0,0,0-2.66,9.15,5.74,5.74,0,0,0,0,1,1,1,0,0,1,0,.17C260.14,115.24,260.46,121.44,256.94,122.06Z" style="fill: rgb(235, 148, 129); transform-origin: 253.869px 109.733px;" id="ele3um2zkqf48" class="animable"></path><path d="M262.74,103a39.74,39.74,0,0,0-2.65,9.15,4.91,4.91,0,0,0,0,1,.85.85,0,0,1,0,.16,8.08,8.08,0,0,1-1.58-.11c-9.22-1.59-9.83-12.51-9.82-15.58Z" style="fill: rgb(38, 50, 56); transform-origin: 255.715px 105.467px;" id="elxr6v47mg28" class="animable"></path><path d="M245,112.08a36.57,36.57,0,0,0,7.38,10.62c4.89,4.74,5.58,5.11,5.58,5.11s2.42-7.8,2.11-11.45S245,112.08,245,112.08Z" style="fill: rgb(235, 148, 129); transform-origin: 252.549px 119.945px;" id="elkaex9r44zq" class="animable"></path><path d="M258,127.81c-1.39.78-12.54-9.76-13.13-9.61-.88.21-5.71,4.73-5.85,5.26s.27,2-.08,1.94-1.86-2.46-2.34-3.55,2.42-9.7,3.28-10.67,6-4.05,6.16-3.42.81,6.83,1.46,7.93S258,127.81,258,127.81Z" style="fill: rgb(219, 219, 219); transform-origin: 247.273px 117.764px;" id="elzeknegxr0mc" class="animable"></path><path d="M258,127.81c.54,0,5.22-9.82,5.82-10,.88-.21,2.7,1.35,3.07,1.75s.68,1.92,1,1.69-.23-4.29-.3-5.48-6.74-7-6.91-6.41a23.05,23.05,0,0,0-.64,5.13C259.89,115.8,258,127.81,258,127.81Z" style="fill: rgb(219, 219, 219); transform-origin: 262.995px 118.564px;" id="el31x7diauiju" class="animable"></path><path d="M240.31,82.85c-.78,5.64,4.56,20.72,8.94,23.57,6.35,4.14,15.5,3.16,18.7-4.19,3.1-7.12-4.19-26.66-9-29.12C251.94,69.48,241.47,74.51,240.31,82.85Z" style="fill: rgb(235, 148, 129); transform-origin: 254.464px 90.3839px;" id="elfn7gygr56aj" class="animable"></path><path d="M244.14,98.61s-6-9.68-4.56-17.36,9.27-11,16.69-9.6c3.79.74,6.28,5.23,6.39,5.75,0,0-1.93-2.82-3.87-2.17-1.16.39-.78,2.76-1.68,3.1-2.24.84-3.8-1.49-7.68-.68-1.81.37-4.64,3.19-4.78,6.19s2.55,9.92,2.57,11S244.14,98.61,244.14,98.61Z" style="fill: rgb(38, 50, 56); transform-origin: 251.008px 84.9737px;" id="elkkaeolskild" class="animable"></path><path d="M245.4,95.34s1.86,3.91,1.65,4.66-1.65,1.65-1.65,1.65a10.9,10.9,0,0,0,4.48,6.77c3.76,2.42,11.62,3.35,14.61,2.07s5.17-8.57,5.18-10.71c0-3.76-2.15-10.14-2.15-10.14s-.17,3.81-1.55,4.64a3.15,3.15,0,0,1-2.71-.1l-2.24.21a16.58,16.58,0,0,1-7.19,2.18,21.56,21.56,0,0,1-7.45-1.46Z" style="fill: rgb(38, 50, 56); transform-origin: 257.535px 100.352px;" id="el4gepnfvgp3o" class="animable"></path><path d="M256.2,90.3s-.07.07-.06.11c.31,1,.5,2.25-.34,2.85,0,0,0,.06,0,0C256.92,92.84,256.66,91.22,256.2,90.3Z" style="fill: rgb(38, 50, 56); transform-origin: 256.197px 91.7933px;" id="eluchklak1wl9" class="animable"></path><path d="M255,89.47c-1.69.32-.92,3.69.65,3.39S256.4,89.2,255,89.47Z" style="fill: rgb(38, 50, 56); transform-origin: 255.275px 91.1667px;" id="elef5mlogzmje" class="animable"></path><path d="M262.32,88.88s.09,0,.1.07c.21,1,.62,2.22,1.64,2.35a0,0,0,0,1,0,.06C262.88,91.46,262.35,89.9,262.32,88.88Z" style="fill: rgb(38, 50, 56); transform-origin: 263.19px 90.1223px;" id="elghc21q611c9" class="animable"></path><path d="M263,87.57c1.65-.51,2.55,2.82,1,3.3S261.62,88,263,87.57Z" style="fill: rgb(38, 50, 56); transform-origin: 263.55px 89.217px;" id="eljnc9ff58r2" class="animable"></path><path d="M252.57,87.64a12.51,12.51,0,0,0,1.33-.5,2.28,2.28,0,0,0,1.25-.77.73.73,0,0,0-.13-.88,1.79,1.79,0,0,0-1.83-.14,2.63,2.63,0,0,0-1.51,1.18A.78.78,0,0,0,252.57,87.64Z" style="fill: rgb(38, 50, 56); transform-origin: 253.418px 86.4136px;" id="elsvl3cesdmnl" class="animable"></path><path d="M264.63,86.72a13.23,13.23,0,0,1-1.38.34,2.25,2.25,0,0,1-1.47.08.74.74,0,0,1-.39-.8,1.84,1.84,0,0,1,1.43-1.16,2.68,2.68,0,0,1,1.91.12A.78.78,0,0,1,264.63,86.72Z" style="fill: rgb(38, 50, 56); transform-origin: 263.259px 86.1427px;" id="elgcwtgv4lff" class="animable"></path><path d="M257.21,99.76c.27.25.53.58.92.6a2.8,2.8,0,0,0,1.14-.3,0,0,0,0,1,.05,0,1.44,1.44,0,0,1-1.34.63,1.15,1.15,0,0,1-.87-.92C257.09,99.75,257.17,99.73,257.21,99.76Z" style="fill: rgb(255, 255, 255); transform-origin: 258.213px 100.221px;" id="elu1jclka35k" class="animable"></path><path d="M257.84,96.46a3.65,3.65,0,0,0,2.73,1,4.45,4.45,0,0,0,1.29-.24,4.28,4.28,0,0,0,.46-.17.26.26,0,0,0,.15-.28h0l-.58-2.21c.33.08,2,.4,1.86,0a55.65,55.65,0,0,0-3.85-10.43.1.1,0,0,0-.19.07c.84,3.33,2.26,6.49,3.15,9.82a6.6,6.6,0,0,0-1.79-.12c-.06,0,.78,2.7.78,2.72a5.09,5.09,0,0,1-3.94-.29C257.82,96.31,257.75,96.4,257.84,96.46Z" style="fill: rgb(38, 50, 56); transform-origin: 260.778px 90.765px;" id="elhbcwjv0t7dk" class="animable"></path><path d="M257.84,96.46a3.65,3.65,0,0,0,2.73,1,4.45,4.45,0,0,0,1.29-.24,4.28,4.28,0,0,0,.46-.17.26.26,0,0,0,.15-.28h0l-.58-2.21a1,1,0,0,0-.66,0c-.06,0,.62,2,.62,2.06a5.09,5.09,0,0,1-3.94-.29C257.82,96.31,257.75,96.4,257.84,96.46Z" style="fill: rgb(255, 255, 255); transform-origin: 260.136px 95.9851px;" id="el75n84nqy1yk" class="animable"></path><path d="M249.8,90.24l8.67-3.91s2.35,6.9-1.76,8.4S249.8,90.24,249.8,90.24Z" style="fill: rgb(38, 50, 56); transform-origin: 254.469px 90.6505px;" id="el9g2yx04jl6k" class="animable"></path><path d="M263.79,79.2a47.68,47.68,0,0,1-22.23,13.59l.55,1.49s12-2.22,22.66-13.56Z" style="fill: rgb(38, 50, 56); transform-origin: 253.165px 86.74px;" id="el5hagniujaot" class="animable"></path><path d="M247,95.34s-4.4-4.37-6.45-2.71,1.9,8.44,4.75,9a2.76,2.76,0,0,0,3.37-2.11Z" style="fill: rgb(235, 148, 129); transform-origin: 244.326px 96.983px;" id="elzfvtikkwm1s" class="animable"></path><path d="M241.73,94.55s0,.06,0,.07c2,.42,3.3,2,4.32,3.65a1.53,1.53,0,0,0-2.32,0,.06.06,0,0,0,.07.1,1.68,1.68,0,0,1,1.94.25,7.62,7.62,0,0,1,1.15,1.32c.12.15.41,0,.31-.17l0,0C246.79,97.32,244.33,94.32,241.73,94.55Z" style="fill: rgb(38, 50, 56); transform-origin: 244.475px 97.2696px;" id="elbjy8wxjgnuj" class="animable"></path><path d="M240.62,91.93c.34-.08,7-5.82,12.54-8.9a70.24,70.24,0,0,1,10.5-4.44,7.22,7.22,0,0,0-1-1.82,29.4,29.4,0,0,0-1.65-2.5c-.22,0-9.35,3.61-13,6.83s-8.42,9.36-8.24,9.56S240.34,92,240.62,91.93Z" style="fill: #90CAF9; transform-origin: 251.713px 83.1015px;" id="elunl2mvu8kaf" class="animable"></path><path d="M264.4,80.75s-5.29-2.57-15,2.6-10.45,8.9-10.45,8.9c-.86.62-17.77,8.33-18.62,2-.58-4.36,6.49-11.17,8.65-13.46S224.08,58,240.83,52.26C256.08,47.05,262,65.56,265.16,66c3.29.51,8.6-1.17,10.64.46C281.76,71.3,265.41,80.37,264.4,80.75Z" style="fill: rgb(38, 50, 56); transform-origin: 248.7px 74.0333px;" id="el8kgo15suv4" class="animable"></path><path d="M238.9,92.25c-4.16,2.27-13.7,7-18.1,4.28-2.17-1.59-1.3-4.82-.36-6.71C222.33,86,225.22,83,228,80c.39-3.82-.45-7.78,0-11.76.29-5.8,2.81-12,8-15.24s11.84-4.31,17.17-1.23c5.18,2.82,8.13,7.9,11.43,12.42.38.49.84.88.91.83,3.47.44,7.07-1.17,10.48.69,4.68,3.48-1.53,8.56-4.45,10.77a43.52,43.52,0,0,1-7.08,4.32,33,33,0,0,0,3.4-2.34c2.58-2.12,8.85-6.68,8.23-10.26-1.58-3.29-8.21-.24-11.28-1.07-2.12-.86-3.2-3.2-4.55-4.78-2.32-3.12-5-6.34-8.42-8.09-4.5-2.47-10-1.42-14.21,1.26-4.46,2.75-6.36,7.86-6.79,13-.35,3.32-.05,6.8-.1,10.24a4.38,4.38,0,0,1-.93,3c-.37.36-.92.92-1.28,1.28-15.91,15.86-3.33,15.2,10.44,9.3Z" style="fill: #90CAF9; transform-origin: 248.564px 73.6439px;" id="elxytynxlhrng" class="animable"></path><path d="M243.63,69.09c.09-.22-1-.66-.67-1.19s1-.61,2.36.62c.49.44,8.26.72,8.55.51s1.64-1.39,2.1-.62-.79,1.17-.77,1.33,1.36,1,.79,1.52-1.83-.88-2.26-.91-8.18-.75-8.68-.52-1.63,1.17-2.11.54C242.22,69.42,243.56,69.25,243.63,69.09Z" style="fill: rgb(255, 255, 255); transform-origin: 249.43px 69.4549px;" id="eld14d8pg719e" class="animable"></path><path d="M245.16,66s-2.63.07-2.95-1-.41-4.17.7-5.29,3.62-2.16,4.75-1.89,3.81,2,3.91,2.86a6.92,6.92,0,0,1-1.09,3.07,6.9,6.9,0,0,1,.54,1.71c-.3.7-4.44,2.46-5.24,1.93A5,5,0,0,1,245.16,66Z" style="fill: rgb(255, 255, 255); transform-origin: 246.784px 62.6324px;" id="elwrcycwe1m8o" class="animable"></path><path d="M253.58,64.45c.21.06,1.51-.1,1.69.46s.24,1-2,1.36c0,0-5.23,5.91-5.34,6.23s.69,1.84-.36,2-.79-1.2-1-1.41-1.42.76-1.74,0,1.47-.83,1.92-1.27,5.65-6.15,5.63-6.46-.8-1.84.21-2.19S253.43,64.42,253.58,64.45Z" style="fill: rgb(255, 255, 255); transform-origin: 250.07px 68.8165px;" id="el61zb5il7x8m" class="animable"></path><path d="M250.08,60.93a1.42,1.42,0,1,1-1.92.41A1.39,1.39,0,0,1,250.08,60.93Z" style="fill: rgb(38, 50, 56); transform-origin: 249.334px 62.1329px;" id="el8nxj5oinp5k" class="animable"></path><path d="M243.7,63.08a1.42,1.42,0,1,1,.12,2A1.39,1.39,0,0,1,243.7,63.08Z" style="fill: rgb(38, 50, 56); transform-origin: 244.758px 64.0197px;" id="elmulik06kzkc" class="animable"></path><path d="M247.16,63.68c-.2.11-.39,1,0,1s.25-.52.25-.52.35.46.58.17S247.36,63.56,247.16,63.68Z" style="fill: rgb(38, 50, 56); transform-origin: 247.481px 64.1706px;" id="elpz6v0wxfob" class="animable"></path><g id="elk3gqmi42i8"><rect x="324.87" y="143.38" width="7.39" height="45.04" style="fill: #90CAF9; transform-origin: 328.565px 165.9px; transform: rotate(11.14deg);" class="animable" id="el2l803nv0wn4"></rect></g><g id="el2k1udrkpk3t"><rect x="324.87" y="143.38" width="7.39" height="45.04" style="opacity: 0.6; transform-origin: 328.565px 165.9px; transform: rotate(11.14deg);" class="animable" id="elkr0244x2wqb"></rect></g><g id="el58xobf6fkup"><rect x="325.61" y="132.72" width="17.65" height="6.71" style="fill: #90CAF9; transform-origin: 334.435px 136.075px; transform: rotate(11.14deg);" class="animable" id="eltss1dii7j6i"></rect></g><g id="elto9ui5ik82e"><rect x="325.61" y="132.72" width="17.65" height="6.71" style="opacity: 0.6; transform-origin: 334.435px 136.075px; transform: rotate(11.14deg);" class="animable" id="eld5ep6s9tzgv"></rect></g><g id="elmmnhv9urly"><rect x="325.23" y="136.62" width="17.65" height="2.77" style="opacity: 0.1; transform-origin: 334.055px 138.005px; transform: rotate(11.14deg);" class="animable" id="el7n270v48e1p"></rect></g><path d="M338,118.14h0c-4.05-.8-7.83,1.52-8.25,5l-1,8.34,12.71,2.5,2.25-8.09C344.64,122.51,342,118.93,338,118.14Z" style="fill: #90CAF9; transform-origin: 336.323px 125.981px;" id="el5gkgzvl2umo" class="animable"></path><g id="elolrqsd8ztb"><path d="M338,118.14h0c-4.05-.8-7.83,1.52-8.25,5l-1,8.34,12.71,2.5,2.25-8.09C344.64,122.51,342,118.93,338,118.14Z" style="opacity: 0.6; transform-origin: 336.323px 125.981px;" class="animable" id="elrm7qt5g62oj"></path></g><g id="elg3p0r37zo5w"><polygon points="328.73 131.53 328.93 129.82 342.31 130.91 341.44 134.03 328.73 131.53" style="opacity: 0.1; transform-origin: 335.52px 131.925px;" class="animable" id="eleb7m0n6tmze"></polygon></g><g id="el36upn4qhtc3"><rect x="300.92" y="148.19" width="7.39" height="45.04" style="fill: #90CAF9; transform-origin: 304.615px 170.71px; transform: rotate(-33.86deg);" class="animable" id="el86om9p08im7"></rect></g><g id="elm0zhbnk6z1p"><rect x="300.92" y="148.19" width="7.39" height="45.04" style="opacity: 0.6; transform-origin: 304.615px 170.71px; transform: rotate(-33.86deg);" class="animable" id="elhlyn3vrcamh"></rect></g><g id="elk1huu1u993m"><rect x="278.86" y="142.11" width="17.65" height="6.71" style="fill: #90CAF9; transform-origin: 287.685px 145.465px; transform: rotate(-33.86deg);" class="animable" id="el4tcsh6r2qju"></rect></g><g id="elpk5icf4c1kd"><rect x="278.86" y="142.11" width="17.65" height="6.71" style="opacity: 0.6; transform-origin: 287.685px 145.465px; transform: rotate(-33.86deg);" class="animable" id="eludz0soiaojm"></rect></g><g id="elfwyokp85gqw"><rect x="279.96" y="145.72" width="17.65" height="2.77" style="opacity: 0.1; transform-origin: 288.785px 147.105px; transform: rotate(-34.0075deg);" class="animable" id="elv7zm718w8y"></rect></g><path d="M277.5,130.29h0c-3.42,2.29-4.46,6.61-2.26,9.4l5.19,6.6,10.77-7.22-4.14-7.31C285.31,128.66,280.92,128,277.5,130.29Z" style="fill: #90CAF9; transform-origin: 282.642px 137.608px;" id="el2605kvtuye9" class="animable"></path><g id="el7zlmg63qg8i"><path d="M277.5,130.29h0c-3.42,2.29-4.46,6.61-2.26,9.4l5.19,6.6,10.77-7.22-4.14-7.31C285.31,128.66,280.92,128,277.5,130.29Z" style="opacity: 0.6; transform-origin: 282.642px 137.608px;" class="animable" id="elxzwpeydfie"></path></g><g id="el4rxbixkx513"><polygon points="280.43 146.29 279.37 144.94 289.6 136.24 291.2 139.07 280.43 146.29" style="opacity: 0.1; transform-origin: 285.285px 141.265px;" class="animable" id="el88e0991uk3s"></polygon></g><g id="el2i9qk32aax9"><rect x="287.4" y="168.52" width="7.39" height="45.04" style="fill: #90CAF9; transform-origin: 291.095px 191.04px; transform: rotate(-78.86deg);" class="animable" id="elkkmfgj7g6h"></rect></g><g id="eltd8us5r2qmd"><rect x="287.4" y="168.52" width="7.39" height="45.04" style="opacity: 0.6; transform-origin: 291.095px 191.04px; transform: rotate(-78.86deg);" class="animable" id="el22sx9sk50mu"></rect></g><g id="elenq34ei99n4"><rect x="252.44" y="181.81" width="17.65" height="6.71" style="fill: #90CAF9; transform-origin: 261.265px 185.165px; transform: rotate(-78.86deg);" class="animable" id="elypuqtw1tlt"></rect></g><g id="elhzv6cy57gyp"><rect x="252.44" y="181.81" width="17.65" height="6.71" style="opacity: 0.6; transform-origin: 261.265px 185.165px; transform: rotate(-78.86deg);" class="animable" id="elc4ijehg8326"></rect></g><g id="elil4oegpqxg"><rect x="254.37" y="184.16" width="17.65" height="2.77" style="opacity: 0.1; transform-origin: 263.195px 185.545px; transform: rotate(-78.86deg);" class="animable" id="elurr64qxlcd9"></rect></g><path d="M243.33,181.64h0c-.79,4,1.52,7.83,5,8.25l8.34,1,2.51-12.72-8.1-2.24C247.71,175,244.13,177.59,243.33,181.64Z" style="fill: #90CAF9; transform-origin: 251.177px 183.315px;" id="elb3tm693rydc" class="animable"></path><g id="elw9qnziplh5"><path d="M243.33,181.64h0c-.79,4,1.52,7.83,5,8.25l8.34,1,2.51-12.72-8.1-2.24C247.71,175,244.13,177.59,243.33,181.64Z" style="opacity: 0.6; transform-origin: 251.177px 183.315px;" class="animable" id="eli5lo76k7jpd"></path></g><g id="elcge90tm0tda"><polygon points="256.72 190.88 255.02 190.67 256.1 177.29 259.23 178.16 256.72 190.88" style="opacity: 0.1; transform-origin: 257.125px 184.085px;" class="animable" id="elgxn0ye7h5r5"></polygon></g><g id="elnzqsz7vy0hm"><rect x="292.21" y="192.46" width="7.39" height="45.04" style="fill: #90CAF9; transform-origin: 295.905px 214.98px; transform: rotate(-123.86deg);" class="animable" id="elsc9yt0hd9s"></rect></g><g id="el467trihykmb"><rect x="292.21" y="192.46" width="7.39" height="45.04" style="opacity: 0.6; transform-origin: 295.905px 214.98px; transform: rotate(-123.86deg);" class="animable" id="elu6gdkzec1i9"></rect></g><g id="elq5hmm3eg6tl"><rect x="261.83" y="228.57" width="17.65" height="6.71" style="fill: #90CAF9; transform-origin: 270.655px 231.925px; transform: rotate(-123.86deg);" class="animable" id="elcncen8nbkrp"></rect></g><g id="elmti9fb495no"><rect x="261.83" y="228.57" width="17.65" height="6.71" style="opacity: 0.6; transform-origin: 270.655px 231.925px; transform: rotate(-123.86deg);" class="animable" id="elix9p8ldxzu9"></rect></g><g id="elqg4thps3ov"><rect x="263.47" y="229.44" width="17.65" height="2.77" style="opacity: 0.1; transform-origin: 272.295px 230.825px; transform: rotate(-123.86deg);" class="animable" id="el9j4rw0981h6"></rect></g><path d="M255.48,242.11h0c2.3,3.42,6.61,4.46,9.41,2.26l6.6-5.2-7.23-10.76L257,232.54C253.86,234.3,253.18,238.68,255.48,242.11Z" style="fill: #90CAF9; transform-origin: 262.804px 236.968px;" id="elzxc02t6jkd8" class="animable"></path><g id="elu9mnuwcqs3m"><path d="M255.48,242.11h0c2.3,3.42,6.61,4.46,9.41,2.26l6.6-5.2-7.23-10.76L257,232.54C253.86,234.3,253.18,238.68,255.48,242.11Z" style="opacity: 0.6; transform-origin: 262.804px 236.968px;" class="animable" id="el091yzm1b98fv"></path></g><g id="el998562n9yor"><polygon points="271.49 239.17 270.14 240.23 261.44 230.01 264.26 228.41 271.49 239.17" style="opacity: 0.1; transform-origin: 266.465px 234.32px;" class="animable" id="elhpnpqf3yjzf"></polygon></g><g id="elii78tldtd2g"><rect x="312.54" y="205.99" width="7.39" height="45.04" style="fill: #90CAF9; transform-origin: 316.235px 228.51px; transform: rotate(-168.86deg);" class="animable" id="elkj4rea5ef5i"></rect></g><g id="elmaukmbmqb9s"><rect x="312.54" y="205.99" width="7.39" height="45.04" style="opacity: 0.6; transform-origin: 316.235px 228.51px; transform: rotate(-168.86deg);" class="animable" id="elb4b5gwyggdu"></rect></g><g id="elwoz6m2d1xbk"><rect x="301.54" y="254.99" width="17.65" height="6.71" style="fill: #90CAF9; transform-origin: 310.365px 258.345px; transform: rotate(-168.86deg);" class="animable" id="eli6bgi9wj2n"></rect></g><g id="elxzyjloa0bl"><rect x="301.54" y="254.99" width="17.65" height="6.71" style="opacity: 0.6; transform-origin: 310.365px 258.345px; transform: rotate(-168.86deg);" class="animable" id="eljmpb9g74bvh"></rect></g><g id="ely1kbmk2e9jg"><rect x="301.92" y="255.02" width="17.65" height="2.77" style="opacity: 0.1; transform-origin: 310.745px 256.405px; transform: rotate(-168.86deg);" class="animable" id="elhehu1yxizqv"></rect></g><path d="M306.83,276.27h0c4.05.8,7.83-1.52,8.25-5l1-8.34-12.71-2.5-2.25,8.09C300.16,271.9,302.78,275.48,306.83,276.27Z" style="fill: #90CAF9; transform-origin: 308.501px 268.429px;" id="elz5mverr2ha" class="animable"></path><g id="elxddxvpttye"><path d="M306.83,276.27h0c4.05.8,7.83-1.52,8.25-5l1-8.34-12.71-2.5-2.25,8.09C300.16,271.9,302.78,275.48,306.83,276.27Z" style="opacity: 0.6; transform-origin: 308.501px 268.429px;" class="animable" id="eln05hssdnwv"></path></g><g id="elxx5fdcj1wmi"><polygon points="316.07 262.88 315.87 264.59 302.49 263.5 303.36 260.38 316.07 262.88" style="opacity: 0.1; transform-origin: 309.28px 262.485px;" class="animable" id="elpych1b8glm"></polygon></g><g id="elfzmjw8cb9ir"><rect x="336.48" y="201.18" width="7.39" height="45.04" style="fill: #90CAF9; transform-origin: 340.175px 223.7px; transform: rotate(146.14deg);" class="animable" id="elevesbbzbpna"></rect></g><g id="eln9h97388ctr"><rect x="336.48" y="201.18" width="7.39" height="45.04" style="opacity: 0.6; transform-origin: 340.175px 223.7px; transform: rotate(146.14deg);" class="animable" id="elvcrvrv65uq"></rect></g><g id="elsks2f63e78r"><rect x="348.29" y="245.59" width="17.65" height="6.71" style="fill: #90CAF9; transform-origin: 357.115px 248.945px; transform: rotate(146.14deg);" class="animable" id="el2h6d2ysponq"></rect></g><g id="elznn0uitt6jl"><rect x="348.29" y="245.59" width="17.65" height="6.71" style="opacity: 0.6; transform-origin: 357.115px 248.945px; transform: rotate(146.14deg);" class="animable" id="el4nil1s8gfpg"></rect></g><g id="elgjqlnsk4h3k"><rect x="347.2" y="245.93" width="17.65" height="2.77" style="opacity: 0.1; transform-origin: 356.025px 247.315px; transform: rotate(146.14deg);" class="animable" id="elc0cpgn31cjo"></rect></g><path d="M367.3,264.12h0c3.43-2.29,4.46-6.61,2.26-9.4l-5.19-6.6-10.77,7.22,4.14,7.31C359.49,265.75,363.88,266.42,367.3,264.12Z" style="fill: #90CAF9; transform-origin: 362.159px 256.804px;" id="elml4lq01s3xq" class="animable"></path><g id="el1uyg7a23gke"><path d="M367.3,264.12h0c3.43-2.29,4.46-6.61,2.26-9.4l-5.19-6.6-10.77,7.22,4.14,7.31C359.49,265.75,363.88,266.42,367.3,264.12Z" style="opacity: 0.6; transform-origin: 362.159px 256.804px;" class="animable" id="elr46h1ty82h"></path></g><g id="el93hga1mnam5"><polygon points="364.37 248.12 365.43 249.47 355.2 258.17 353.61 255.34 364.37 248.12" style="opacity: 0.1; transform-origin: 359.52px 253.145px;" class="animable" id="eltsurvl1fjr"></polygon></g><g id="elyz9cfqgnyli"><rect x="350.01" y="180.85" width="7.39" height="45.04" style="fill: #90CAF9; transform-origin: 353.705px 203.37px; transform: rotate(101.14deg);" class="animable" id="eldzv1zxxrs7a"></rect></g><g id="elgtn4nakmv3u"><rect x="350.01" y="180.85" width="7.39" height="45.04" style="opacity: 0.6; transform-origin: 353.705px 203.37px; transform: rotate(101.14deg);" class="animable" id="eld9ltilfcmds"></rect></g><g id="elwcp65m44i19"><rect x="374.71" y="205.89" width="17.65" height="6.71" style="fill: #90CAF9; transform-origin: 383.535px 209.245px; transform: rotate(101.14deg);" class="animable" id="eliwjiiikkal9"></rect></g><g id="elvjb1ed1v4g"><rect x="374.71" y="205.89" width="17.65" height="6.71" style="opacity: 0.6; transform-origin: 383.535px 209.245px; transform: rotate(101.14deg);" class="animable" id="eln2vx0zmbfcq"></rect></g><g id="elvdt2n3p6418"><rect x="372.78" y="207.48" width="17.65" height="2.77" style="opacity: 0.1; transform-origin: 381.605px 208.865px; transform: rotate(101.14deg);" class="animable" id="el2oaddvorq4g"></rect></g><path d="M401.47,212.77h0c.8-4-1.52-7.83-5.05-8.25l-8.34-1-2.51,12.72,8.1,2.24C397.09,219.44,400.67,216.82,401.47,212.77Z" style="fill: #90CAF9; transform-origin: 393.599px 211.099px;" id="el10pqwtcue7n9" class="animable"></path><g id="el4x5cc6v08k"><path d="M401.47,212.77h0c.8-4-1.52-7.83-5.05-8.25l-8.34-1-2.51,12.72,8.1,2.24C397.09,219.44,400.67,216.82,401.47,212.77Z" style="opacity: 0.6; transform-origin: 393.599px 211.099px;" class="animable" id="eljjbeb0pkzn"></path></g><g id="eltoy5aze1hp"><polygon points="388.08 203.53 389.78 203.74 388.7 217.12 385.57 216.25 388.08 203.53" style="opacity: 0.1; transform-origin: 387.675px 210.325px;" class="animable" id="el4szilthjm6x"></polygon></g><g id="elf408b6cvwch"><rect x="345.2" y="156.91" width="7.39" height="45.04" style="fill: #90CAF9; transform-origin: 348.895px 179.43px; transform: rotate(55.9925deg);" class="animable" id="elld35na37y2d"></rect></g><g id="el8b11egdbjg"><rect x="345.2" y="156.91" width="7.39" height="45.04" style="opacity: 0.6; transform-origin: 348.895px 179.43px; transform: rotate(55.9925deg);" class="animable" id="elxl5uxskgs6"></rect></g><g id="eljggg1qd1cvs"><rect x="365.32" y="159.14" width="17.65" height="6.71" style="fill: #90CAF9; transform-origin: 374.145px 162.495px; transform: rotate(56.14deg);" class="animable" id="el2h3gwzrofph"></rect></g><g id="elaxqyjudpo28"><rect x="365.32" y="159.14" width="17.65" height="6.71" style="opacity: 0.6; transform-origin: 374.145px 162.495px; transform: rotate(56.14deg);" class="animable" id="el6mxq0uff8cj"></rect></g><g id="ell2ktas772h9"><rect x="363.68" y="162.2" width="17.65" height="2.77" style="opacity: 0.1; transform-origin: 372.505px 163.585px; transform: rotate(56.14deg);" class="animable" id="elt71wqqb6v8e"></rect></g><path d="M389.32,152.3h0c-2.3-3.42-6.61-4.46-9.41-2.26l-6.59,5.2L380.54,166l7.31-4.13C390.94,160.11,391.62,155.73,389.32,152.3Z" style="fill: #90CAF9; transform-origin: 382.003px 157.442px;" id="el9l2v4uj41wc" class="animable"></path><g id="elq6f78zikyr"><path d="M389.32,152.3h0c-2.3-3.42-6.61-4.46-9.41-2.26l-6.59,5.2L380.54,166l7.31-4.13C390.94,160.11,391.62,155.73,389.32,152.3Z" style="opacity: 0.6; transform-origin: 382.003px 157.442px;" class="animable" id="el94vaucowbl4"></path></g><g id="elbjtlcpy10wo"><polygon points="373.32 155.24 374.66 154.18 383.36 164.4 380.54 166 373.32 155.24" style="opacity: 0.1; transform-origin: 378.34px 160.09px;" class="animable" id="elfia9mxwcsk7"></polygon></g><path d="M333.88,138.93a59.39,59.39,0,1,0,46.8,69.75A59.38,59.38,0,0,0,333.88,138.93ZM313.31,243.38a47.06,47.06,0,1,1,55.28-37.09A47.06,47.06,0,0,1,313.31,243.38Z" style="fill: #90CAF9; transform-origin: 322.411px 197.202px;" id="el2exlgts2ykd" class="animable"></path><g id="elf6eb475g439"><path d="M333.88,138.93a59.39,59.39,0,1,0,46.8,69.75A59.38,59.38,0,0,0,333.88,138.93ZM313.31,243.38a47.06,47.06,0,1,1,55.28-37.09A47.06,47.06,0,0,1,313.31,243.38Z" style="opacity: 0.6; transform-origin: 322.411px 197.202px;" class="animable" id="elusjlkxwriqt"></path></g><g id="elc40ukzr1wkq"><path d="M332.51,145.88a52.31,52.31,0,1,0,41.22,61.43A52.31,52.31,0,0,0,332.51,145.88Zm-19.2,97.5a47.06,47.06,0,1,1,55.28-37.09A47.06,47.06,0,0,1,313.31,243.38Z" style="opacity: 0.1; transform-origin: 322.405px 197.205px;" class="animable" id="eloh7z4l4793"></path></g><path d="M335.42,146.45a3,3,0,1,1-2.33-3.48A3,3,0,0,1,335.42,146.45Z" style="fill: #90CAF9; transform-origin: 332.47px 145.905px;" id="el5lxolfsgchg" class="animable"></path><path d="M295.72,152.11a3,3,0,1,1-4.12-.81A3,3,0,0,1,295.72,152.11Z" style="fill: #90CAF9; transform-origin: 293.247px 153.808px;" id="elrgd72a0poko" class="animable"></path><path d="M271.65,184.18a3,3,0,1,1-3.49,2.34A3,3,0,0,1,271.65,184.18Z" style="fill: #90CAF9; transform-origin: 271.098px 187.129px;" id="elned7ypp6pwr" class="animable"></path><path d="M277.3,223.88a3,3,0,1,1-.81,4.12A3,3,0,0,1,277.3,223.88Z" style="fill: #90CAF9; transform-origin: 278.998px 226.353px;" id="elukcykodmmw" class="animable"></path><path d="M309.38,248a3,3,0,1,1,2.34,3.48A3,3,0,0,1,309.38,248Z" style="fill: #90CAF9; transform-origin: 312.331px 248.543px;" id="elakop3lx5jkg" class="animable"></path><path d="M349.08,242.3a3,3,0,1,1,4.12.81A3,3,0,0,1,349.08,242.3Z" style="fill: #90CAF9; transform-origin: 351.553px 240.602px;" id="elnnluv3oky4" class="animable"></path><path d="M373.15,210.23a3,3,0,1,1,3.49-2.34A3,3,0,0,1,373.15,210.23Z" style="fill: #90CAF9; transform-origin: 373.702px 207.281px;" id="elakkufn6yhmh" class="animable"></path><path d="M367.5,170.53a3,3,0,1,1,.81-4.12A3,3,0,0,1,367.5,170.53Z" style="fill: #90CAF9; transform-origin: 365.802px 168.057px;" id="elu23ayt86agn" class="animable"></path><g id="elaktr153kzk4"><circle cx="322.4" cy="197.2" r="28.45" style="fill: #90CAF9; transform-origin: 322.4px 197.2px; transform: rotate(-51.74deg);" class="animable" id="elnk12ydedx4"></circle></g><g id="els42j8pig9d"><circle cx="322.4" cy="197.2" r="28.45" style="opacity: 0.6; transform-origin: 322.4px 197.2px; transform: rotate(-51.74deg);" class="animable" id="elel7f70ik1bj"></circle></g><g id="ellah5lof1zps"><circle cx="322.4" cy="197.2" r="18.83" style="fill: #90CAF9; opacity: 0.6; transform-origin: 322.4px 197.2px; transform: rotate(-58.33deg);" class="animable" id="el53mbs4mxr25"></circle></g><g id="elkpy0x76os2"><rect x="322.5" y="166.45" width="10.93" height="5.02" rx="1.55" style="fill: #90CAF9; transform-origin: 327.965px 168.96px; transform: rotate(10.9722deg);" class="animable" id="el61h9z8c0d79"></rect></g><g id="elomk8uhubfj"><rect x="322.5" y="166.45" width="10.93" height="5.02" rx="1.55" style="opacity: 0.6; transform-origin: 327.965px 168.96px; transform: rotate(10.9722deg);" class="animable" id="eldws4ho3ksar"></rect></g><g id="el5okgfswvqdn"><rect x="300.9" y="170.79" width="10.93" height="5.02" rx="1.55" style="fill: #90CAF9; transform-origin: 306.365px 173.3px; transform: rotate(-33.86deg);" class="animable" id="elyiiys920i2"></rect></g><g id="eldkfqcc6c5n8"><rect x="300.9" y="170.79" width="10.93" height="5.02" rx="1.55" style="opacity: 0.6; transform-origin: 306.365px 173.3px; transform: rotate(-33.86deg);" class="animable" id="elgyyr935hup"></rect></g><g id="el0njev8todxw"><rect x="288.69" y="189.13" width="10.93" height="5.02" rx="1.55" style="fill: #90CAF9; transform-origin: 294.155px 191.64px; transform: rotate(-78.86deg);" class="animable" id="elby1dkh62wtd"></rect></g><g id="elle2m18kh4eb"><rect x="288.69" y="189.13" width="10.93" height="5.02" rx="1.55" style="opacity: 0.6; transform-origin: 294.155px 191.64px; transform: rotate(-78.86deg);" class="animable" id="elue2atcd1nc"></rect></g><g id="eljfzt0pvsqi9"><rect x="293.03" y="210.74" width="10.93" height="5.02" rx="1.55" style="fill: #90CAF9; transform-origin: 298.495px 213.25px; transform: rotate(-123.86deg);" class="animable" id="el8yogqfex4js"></rect></g><g id="elvizc82olbqm"><rect x="293.03" y="210.74" width="10.93" height="5.02" rx="1.55" style="opacity: 0.6; transform-origin: 298.495px 213.25px; transform: rotate(-123.86deg);" class="animable" id="el62qjm13663d"></rect></g><g id="eld2jk1rjazfc"><rect x="311.37" y="222.94" width="10.93" height="5.02" rx="1.55" style="fill: #90CAF9; transform-origin: 316.835px 225.45px; transform: rotate(-168.86deg);" class="animable" id="elqtsb90p82b"></rect></g><g id="elap3aabxqxkl"><rect x="311.37" y="222.94" width="10.93" height="5.02" rx="1.55" style="opacity: 0.6; transform-origin: 316.835px 225.45px; transform: rotate(-168.86deg);" class="animable" id="elm9kohr8l7rd"></rect></g><g id="eldvjj31uyy5q"><rect x="332.98" y="218.6" width="10.93" height="5.02" rx="1.55" style="fill: #90CAF9; transform-origin: 338.445px 221.11px; transform: rotate(146.14deg);" class="animable" id="el5rd0b91roow"></rect></g><g id="elvn2d60ffnj"><rect x="332.98" y="218.6" width="10.93" height="5.02" rx="1.55" style="opacity: 0.6; transform-origin: 338.445px 221.11px; transform: rotate(146.14deg);" class="animable" id="elv9c17qo0h6g"></rect></g><g id="elip9i4upt13"><rect x="345.18" y="200.26" width="10.93" height="5.02" rx="1.55" style="fill: #90CAF9; transform-origin: 350.645px 202.77px; transform: rotate(101.14deg);" class="animable" id="elr34ttnaja88"></rect></g><g id="ele2dxlo0gkdu"><rect x="345.18" y="200.26" width="10.93" height="5.02" rx="1.55" style="opacity: 0.6; transform-origin: 350.645px 202.77px; transform: rotate(101.14deg);" class="animable" id="elrez0notr61e"></rect></g><g id="elw6u8b8jij1"><rect x="340.84" y="178.66" width="10.93" height="5.02" rx="1.55" style="fill: #90CAF9; transform-origin: 346.305px 181.17px; transform: rotate(56.14deg);" class="animable" id="elqry3z5byb"></rect></g><g id="el0d85mvoxwga"><rect x="340.84" y="178.66" width="10.93" height="5.02" rx="1.55" style="opacity: 0.6; transform-origin: 346.305px 181.17px; transform: rotate(56.14deg);" class="animable" id="el5cska5xpder"></rect></g><path d="M231.52,122.44c-21.81,20.42-43.83,53.73-38.86,62.88,5.54,10.19,35.58-17.43,35.48-19.16-.07-1.3,5.52-18.72,13.75-38.07S236.92,117.39,231.52,122.44Z" style="fill: rgb(235, 148, 129); transform-origin: 218.237px 151.826px;" id="elunxjamrwsi" class="animable"></path><path d="M226.46,170.74c.95-2.85,13.28-32.88,17.52-44s-.51-15.11-12.37-5.18-32.1,32.62-38.17,50.68c-5.85,17.4,2.94,19.38,15.42,11.66A125.2,125.2,0,0,0,226.46,170.74Z" style="fill: #90CAF9; transform-origin: 218.547px 152.045px;" id="elpzk07bwxb7" class="animable"></path><g id="elu6vmgmtuug9"><g style="opacity: 0.3; transform-origin: 218.547px 152.045px;" class="animable" id="elgxwqwaufbas"><path d="M226.46,170.74c.95-2.85,13.28-32.88,17.52-44s-.51-15.11-12.37-5.18-32.1,32.62-38.17,50.68c-5.85,17.4,2.94,19.38,15.42,11.66A125.2,125.2,0,0,0,226.46,170.74Z" id="elh2ft5szgbxp" class="animable" style="transform-origin: 218.547px 152.045px;"></path></g></g><path d="M226.46,170.74c1.31-3.55,2.68-7.08,4-10.6s2.8-7,4.19-10.55L239,139.1l2.2-5.23c.75-1.74,1.49-3.48,2.25-5.21-.64,1.78-1.33,3.54-2,5.31l-2.06,5.29-4.19,10.54c-1.44,3.5-2.85,7-4.31,10.5S228,167.28,226.46,170.74Z" style="fill: rgb(38, 50, 56); transform-origin: 234.955px 149.7px;" id="elge2ui8r8i" class="animable"></path><path d="M240.33,136.86a19,19,0,0,1,1.55-2.56c.28-.41.57-.81.88-1.2s.62-.78.94-1.17a12.87,12.87,0,0,1-1.47,2.61A16.74,16.74,0,0,1,240.33,136.86Z" style="fill: rgb(55, 71, 79); transform-origin: 242.015px 134.395px;" id="el4iobtnjjqba" class="animable"></path><path d="M249.43,177.47s-14.73-27.92-13.71-30.76c.67-1.86,8.22-5.85,8.22-5.85S227,125.63,228,122.29c.93-3,16.8-11.76,16.8-11.76s4.57,20.5,5.55,27.13C251.12,142.59,249.43,177.47,249.43,177.47Z" style="fill: #90CAF9; transform-origin: 239.254px 144px;" id="el5xvbioab9es" class="animable"></path><path d="M194.06,187c6.51,4.8,17.67,2.65,49.44-1.55,4.4-.59,9.39-33.51,4.66-33.13-5.95.48-28.95,3.63-30.61,4.07C203.61,160.13,189.65,183.75,194.06,187Z" style="fill: rgb(235, 148, 129); transform-origin: 221.653px 171.027px;" id="elxb78oq4r608" class="animable"></path><path d="M287.51,162.31c-1.05,3.68-6.51,1.87-6.51,1.87a7.06,7.06,0,0,1,1.69,4.5c-.11,2.91-4.72,4-4.72,4a8.69,8.69,0,0,1,1,5c-.38,2.78-4.87,4.56-4.87,4.56a7.69,7.69,0,0,1-1.89,5c-3.38,3.56-10.66,1.53-15.41,1.17-5.09-.39-13.27-2.3-17.66-3.06l2.92-32s22.79-5.87,28.14-4C274.73,150.9,289.12,156.68,287.51,162.31Z" style="fill: rgb(235, 148, 129); transform-origin: 263.387px 169.147px;" id="elqga2vcbngd" class="animable"></path><path d="M281,164.05c-4.4-2.8-9.46-4.54-14.36-6.16-.11,0-.16.13-.05.17,4.89,1.56,9.48,4.46,14.3,6.21A.12.12,0,0,0,281,164.05Z" style="fill: rgb(38, 50, 56); transform-origin: 273.798px 161.086px;" id="el0lhzw5o77qli" class="animable"></path><path d="M278,172.29a13.77,13.77,0,0,0-3.35-1.18c-1.22-.34-2.44-.66-3.66-1-2.45-.6-4.92-1.13-7.39-1.6-.11,0-.17.15-.06.17,2.44.6,4.88,1.23,7.29,1.93l3.62,1.07a15.83,15.83,0,0,0,3.44.89A.18.18,0,0,0,278,172.29Z" style="fill: rgb(38, 50, 56); transform-origin: 270.757px 170.54px;" id="elj3qhj6le1pq" class="animable"></path><path d="M274,182.26a9.53,9.53,0,0,0-3.08-.9l-3.36-.76c-2.24-.52-4.48-1-6.7-1.64a.09.09,0,0,0-.05.17c2.25.62,4.49,1.27,6.75,1.87l3.33.86a8.85,8.85,0,0,0,3.08.51C274.05,182.37,274.06,182.29,274,182.26Z" style="fill: rgb(38, 50, 56); transform-origin: 267.399px 180.665px;" id="elsyodkl0wd3g" class="animable"></path><path d="M244.38,152.08,228.06,190s-28.15,2.64-34.32-2.82c-4.06-3.6,9.43-28.15,25.15-31.1Z" style="fill: #90CAF9; transform-origin: 218.695px 171.359px;" id="ela7z7hhnxflk" class="animable"></path><g id="elhvkyjdc910b"><path d="M244.38,152.08,228.06,190s-28.15,2.64-34.32-2.82c-4.06-3.6,9.43-28.15,25.15-31.1Z" style="opacity: 0.3; transform-origin: 218.695px 171.359px;" class="animable" id="elc7xkva33vnr"></path></g><path d="M202.58,166.8A27.44,27.44,0,0,1,218.91,156a.07.07,0,0,1,0,.13c-6.61,2-14.3,8.43-16.27,10.75C202.62,167,202.54,166.87,202.58,166.8Z" style="fill: rgb(38, 50, 56); transform-origin: 210.761px 161.464px;" id="elitfld1ylxk" class="animable"></path><path d="M244.3,151.69a38.73,38.73,0,0,0-5.27.54c-1.76.24-3.5.52-5.25.81-3.47.58-10.89,1.42-17,3.49-.07,0,.39.23.45.2,2.84-1.13,25-4,26.72-4.45a2.93,2.93,0,0,0-.07.41c0,.1.12.18.19.09s.25-.45.4-.67A.26.26,0,0,0,244.3,151.69Z" style="fill: rgb(38, 50, 56); transform-origin: 230.65px 154.211px;" id="el8ldxjcyn0c" class="animable"></path><polygon points="220.85 192.72 222.52 186.49 230.46 185.87 223.69 182.12 231.83 151.96 245.62 150.09 234.17 196.63 220.85 192.72" style="fill: #90CAF9; transform-origin: 233.235px 173.36px;" id="elxnnlb8q18sf" class="animable"></polygon><path d="M338.78,134.81c0,3.65,4.28,1.62,4.28,1.62s-5.53,4.42-4.13,8.2,6.5,1,6.88.83c-.29.24-5.27,4.43-3.47,8.08,1.87,3.8,6.58.27,6.89,0-.21.31-2.84,4.45-.84,6.91,3.43,4.24,10.45-6.15,14.82-6.8,0,0,2.64,3.42,2.74,3.62,0,0,6.2-5.89,5-11.73a3.82,3.82,0,0,0-3.63-3.1s2.56-2.89,1.24-5.82c-.69-1.49-3.69-1.73-3.69-1.73s1.95-2.41.61-4.93c-1.06-2-3.91-1.95-3.91-1.95s.81-3.18-.95-4.89C357.06,119.7,338.9,127,338.78,134.81Z" style="fill: rgb(235, 148, 129); transform-origin: 354.904px 141.859px;" id="elk8luhy2mark" class="animable"></path><path d="M361.1,128a.05.05,0,0,0,0-.1,34,34,0,0,0-18.27,8.63c-.15.15,0,.47.23.34A69.57,69.57,0,0,1,361.1,128Z" style="fill: rgb(38, 50, 56); transform-origin: 351.96px 132.4px;" id="el0hiphj40r1ni" class="animable"></path><path d="M364.92,134.85c.08,0,0-.14,0-.13-6.75,1-14.45,4.65-19.34,10.65-.17.2-.11.56.1.34C349.19,142,358.87,136.7,364.92,134.85Z" style="fill: rgb(38, 50, 56); transform-origin: 355.218px 140.249px;" id="elsrrqgqospgm" class="animable"></path><path d="M349,154.12c4.91-5.57,11.11-9,18-11.61a.08.08,0,0,0-.05-.15c-3.71.36-7.92,2.48-11,4.41a19.58,19.58,0,0,0-7.08,7.18C348.77,154.07,348.92,154.24,349,154.12Z" style="fill: rgb(38, 50, 56); transform-origin: 357.94px 148.26px;" id="elunqh6fgy7ec" class="animable"></path><path d="M342.94,136.41c-.19.18.28.26.1.45-.77.79-5,6-3.66,7.94,1.06,1.59,3.93,1.27,5,.71l2.64-1.4-2,2.23a12.53,12.53,0,0,0-2.16,3.33,4.39,4.39,0,0,0-.17,3.57,2.49,2.49,0,0,0,2.75,1.53,7.49,7.49,0,0,0,3.42-1.64l2.79-2.19-1.91,3a11.31,11.31,0,0,0-1.26,2.65,4.78,4.78,0,0,0-.18,2.73A2.29,2.29,0,0,0,350,160.9a5,5,0,0,0,2.71-.68,38.81,38.81,0,0,0,5.1-3.42c.84-.61,1.68-1.23,2.55-1.81a7.33,7.33,0,0,1,2.82-1.3,8.06,8.06,0,0,0-2.66,1.53c-.81.64-1.59,1.31-2.38,2a33.67,33.67,0,0,1-5,3.77,5.84,5.84,0,0,1-3.22.91,3.18,3.18,0,0,1-2.67-2.27,5.81,5.81,0,0,1,.12-3.39,12.66,12.66,0,0,1,1.36-3l.88.77a8.66,8.66,0,0,1-4,2,3.61,3.61,0,0,1-2.41-.43,4.09,4.09,0,0,1-1.6-1.83,5.5,5.5,0,0,1,.22-4.52,13.35,13.35,0,0,1,2.43-3.63l.65.84c-1.36.66-4.52,1.37-6.48-.88C336.3,142.24,341.86,137.25,342.94,136.41Z" style="fill: rgb(38, 50, 56); transform-origin: 350.561px 149.155px;" id="elerqir5kl9vu" class="animable"></path><path d="M343.06,136.43a7.29,7.29,0,0,1-2.23.2,1.71,1.71,0,0,1-1.45-.92,3.44,3.44,0,0,1-.08-2c.14-.72.33-1.47.55-2.24a5.85,5.85,0,0,0-1.32,2,3.44,3.44,0,0,0-.07,2.61,2.44,2.44,0,0,0,1,1.05,2.63,2.63,0,0,0,1.36.24A4,4,0,0,0,343.06,136.43Z" style="fill: rgb(38, 50, 56); transform-origin: 340.648px 134.425px;" id="elqmzkshxp8l9" class="animable"></path><path d="M90,473.25H359.65s77.21-100.12,83-148.45l-13.48-67.17s-98.62,21.95-132.46,31.7-135.37,73.61-164.45,83.36-87.82-12.42-87.82-12.42S58.78,443.06,90,473.25Z" style="fill: #90CAF9; transform-origin: 243.545px 365.44px;" id="el1i8xgx3t2as" class="animable"></path><g id="el6oc3tpzppo"><path d="M90,473.25H359.65s77.21-100.12,83-148.45l-13.48-67.17s-98.62,21.95-132.46,31.7-135.37,73.61-164.45,83.36-87.82-12.42-87.82-12.42S58.78,443.06,90,473.25Z" style="opacity: 0.7; transform-origin: 243.545px 365.44px;" class="animable" id="elmcft7jid4u"></path></g><g id="elun1sk0w144"><g style="opacity: 0.2; transform-origin: 223.348px 385.108px;" class="animable" id="elmihg6u1eoy"><path d="M398.18,319.31c0-12.69-12.42-21.7-24.25-22.4a69.89,69.89,0,0,0-12,1.22,410.62,410.62,0,0,0-47.24,11.52c-4.27,1.34-8.81,2.78-13.14,4.3l-.09,0c-1.37.49-2.72,1-4,1.48C288,319.05,279.2,324.24,270.3,329c-16.54,9.16-33,18.49-49.67,27.43l-.2.1c-11.91,6.39-23.93,12.57-36.16,18.35-14.79,6.8-29.74,13.67-45.85,16.77-3.63.46-7.35.74-11.13.86h-.21c-25.69.81-54.28-5.66-78.57-13a.85.85,0,0,0,0-.17c29.79,8.31,73.92,17.56,101.36,7.79,3.23-1,8.17-2.84,11.41-4.09,37.62-15.29,72.54-36.3,108.18-55.6,7.17-3.87,14.28-7.8,21.7-11.22a196.77,196.77,0,0,1,23.11-8,407.24,407.24,0,0,1,47.53-11,66.63,66.63,0,0,1,12.21-1C386,297.07,398.52,306.43,398.18,319.31Z" id="elkmhq77x6xja" class="animable" style="transform-origin: 223.348px 344.398px;"></path><path d="M398.18,338c0-12.68-12.42-21.7-24.25-22.4a69.89,69.89,0,0,0-12,1.22,410.62,410.62,0,0,0-47.24,11.52c-5.65,1.77-11.77,3.72-17.26,5.82-9.46,3.58-18.21,8.77-27.11,13.54L267.91,349l-.15.08c-27.56,15.3-55,31-83.49,44.47l-4.6,2.11-.22.1c-13.23,6-26.67,11.8-41,14.56-26.57,3.38-57.78-2.81-84.58-10.59a1.68,1.68,0,0,1-.09-.32c2.29.61,4.65,1.22,7.06,1.82h0c22.22,5.53,49.1,10.3,71.17,8.22l.27,0a73.43,73.43,0,0,0,17.54-3.68c3.23-1,8.17-2.84,11.41-4.09,21.5-8.74,42.11-19.34,62.48-30.43l.19-.11c15.22-8.27,30.3-16.82,45.51-25.06,7.17-3.87,14.28-7.8,21.7-11.22,4.39-1.92,8.86-3.54,13.37-5l.15-.05c3.18-1,6.38-2,9.59-3a407.24,407.24,0,0,1,47.53-11,66.63,66.63,0,0,1,12.21-1C386,315.77,398.52,325.13,398.18,338Z" id="elyeiyxu752y9" class="animable" style="transform-origin: 225.983px 363.036px;"></path><path d="M393.93,357.24c0-10.23-8.54-18.2-17.92-20.77-5.71-1.87-11.67-.73-17.48.18-4.67.79-9.32,1.73-14,2.77l-.12,0c-3.05.67-6.09,1.4-9.13,2.15-19.06,5-38.44,9.89-55.76,19.54-31.41,16.92-62.09,35.24-94.42,50.44-14.44,6.64-29,13.34-44.76,16.37-25.33,3.21-55-2.47-80.72-9.82,0-.13-.09-.25-.13-.38,28.66,7.49,67.24,14.51,92,5.71,3.15-1,8-2.78,11.14-4q10.65-4.34,21-9.25l.23-.11c28.81-13.53,56.33-29.76,84.32-44.91l1.87-1,.27-.15c6.28-3.41,12.54-6.8,19-9.79A192.41,192.41,0,0,1,312,346.42a398.45,398.45,0,0,1,46.4-10.74,65.24,65.24,0,0,1,11.92-1C382,335.59,394.22,344.7,393.93,357.24Z" id="eligxe4ezkoxf" class="animable" style="transform-origin: 226.713px 381.758px;"></path><path d="M388.35,376.8c0-12-11.73-20.49-22.91-21.15a64.27,64.27,0,0,0-11.35,1.16,384.88,384.88,0,0,0-44.62,10.9,201.43,201.43,0,0,0-21.56,7.66c-6.92,3.22-13.64,7-20.35,10.62-26.85,14.88-53.48,30.23-81.28,43.36-14,6.42-28.1,12.91-43.33,15.84a143.11,143.11,0,0,1-34.31-.33l-.16,0a279.7,279.7,0,0,1-41.81-8.66c-.06-.12-.11-.24-.16-.36,10.09,2.58,20.28,4.71,30.56,6.31,15,2.27,30.56,3.79,45.61,1.55,14.94-3.1,29-9.56,42.83-16,27.66-13.26,54.26-28.59,81.18-43.3,6.77-3.66,13.49-7.37,20.5-10.6,14.25-6,29.18-9.75,44.14-13.42,4.16-1,8.33-1.9,12.52-2.73l.12,0q5-1,10-1.79c5.66-.78,11.68-1.78,17.25.18C380.35,358.7,388.68,366.74,388.35,376.8Z" id="elsd4gcr1pun" class="animable" style="transform-origin: 227.435px 400.482px;"></path><path d="M379.72,396.68c0-11.36-11.1-19.42-21.69-20.06-10.82.29-21.49,3.24-32,5.64-4.21,1.05-8.4,2.15-12.57,3.33h0q-4.22,1.17-8.38,2.44c-5,1.57-10.53,3.33-15.44,5.2-8.47,3.19-16.29,7.83-24.26,12.1-9.73,5.38-19.42,10.84-29.15,16.22l-.22.12c-15.66,8.65-31.44,17.09-47.62,24.74-12.8,5.88-25.7,11.84-39.58,14.77,0,0,0,0-.05,0q-.7.17-1.41.3c-14.55,2.07-29.2.77-43.66-1.05-9.11-1.28-18.19-2.9-27.17-4.89-.1-.17-.2-.33-.29-.5a315.75,315.75,0,0,0,36.92,5.37h.08q6.12.49,12.26.69A111,111,0,0,0,147,460c14.13-3,27.47-9.12,40.53-15.21,26.2-12.58,51.39-27.12,76.89-41,6.42-3.47,12.79-7,19.44-10C297.4,388,311.54,384.5,325.71,381c7.09-1.65,14.22-3.17,21.42-4.29,5.37-.73,11.08-1.66,16.36.2C372.17,379.5,380.05,387.14,379.72,396.68Z" id="elzamjnbxkaya" class="animable" style="transform-origin: 227.98px 419.179px;"></path><path d="M373.1,415.83c0-10.74-10.38-18.5-20.43-19.18-10.25.23-20.38,3.08-30.36,5.37q-10,2.52-19.89,5.54c-4.8,1.51-10,3.19-14.63,5-8,3-15.43,7.47-23,11.55-21.82,12.23-43.49,24.82-65.93,36l-.34.17c-2.18,1.08-4.38,2.15-6.58,3.2-7.47,3.47-15,7-22.73,9.84h-5.1c9.27-3.12,18.22-7.32,27-11.48,16.39-8,32.35-16.74,48.27-25.62l.19-.11c8.1-4.52,16.18-9.06,24.3-13.54,6.08-3.32,12.1-6.68,18.4-9.59A169.08,169.08,0,0,1,302,406.09q6.36-1.87,12.77-3.5l.1,0q3.57-.93,7.16-1.78c10.13-2.18,20.28-4.93,30.71-4.9C362.94,396.81,373.43,404.88,373.1,415.83Z" id="el1ndlfsa9ecs" class="animable" style="transform-origin: 268.609px 434.615px;"></path><path d="M365.75,432.48c0-9.74-9.32-16.87-18.46-17.51a49.18,49.18,0,0,0-9.24.94A308.18,308.18,0,0,0,292.79,428a80.8,80.8,0,0,0-9.45,3.82l-.19.09c-5.29,2.51-10.39,5.46-15.54,8.33-10.9,6.16-21.74,12.46-32.7,18.57-9,5-18,9.85-27.24,14.45H204c.08.23.15.47.22.7l-.42-.7h-.27l.21-.1.2-.1c21.35-10.66,42-22.78,62.8-34.41,5.5-3,11-6.11,16.69-8.8a148,148,0,0,1,17.82-6.29q9-2.67,18.2-4.86c9.2-2,18.42-4.53,27.92-4.48C356.67,415.08,366.07,422.54,365.75,432.48Z" id="el83fe57rbxre" class="animable" style="transform-origin: 284.644px 444.09px;"></path><path d="M356.22,447.71c0-8.36-7.17-15.37-15.24-16.39a12.56,12.56,0,0,0-1.62-.08h-.09a42.65,42.65,0,0,0-6.37.79c-5.39,1-10.72,2.34-16,3.79a230.57,230.57,0,0,0-29.16,10c-.75.35-1.49.72-2.23,1.1h0c-4.71,2.42-9.21,5.29-13.78,8.05-9.8,6.08-19.54,12.27-29.41,18.26h-3.75c15.48-9.44,30.69-19.33,46.59-28.09l.06,0,.42-.19c10-4.56,20.43-7.5,30.95-10.34,5.35-1.37,10.73-2.64,16.19-3.54a30.69,30.69,0,0,1,8.34-.49C349.32,431.83,356.55,439.15,356.22,447.71Z" id="elv8u36ss8trr" class="animable" style="transform-origin: 297.4px 451.859px;"></path><path d="M346.85,462.69A14.74,14.74,0,0,0,333,448.34a33.1,33.1,0,0,0-5,.65,188.72,188.72,0,0,0-26.35,7.58A117.8,117.8,0,0,0,289,461.82c-4,2.17-7.81,4.7-11.66,7.18l-6.46,4.25h-3.45c7.67-5,15.93-10.35,20.76-13a100.78,100.78,0,0,1,12.89-5.17A188.12,188.12,0,0,1,327.8,448a34.93,34.93,0,0,1,5.21-.49,13.73,13.73,0,0,1,3.38.63l.06,0C342.51,450.15,347.16,456.19,346.85,462.69Z" id="el6jmrdy7f82u" class="animable" style="transform-origin: 307.147px 460.38px;"></path><path d="M337.56,473.25h-.25a12.21,12.21,0,0,0-8-8.14c-1.68-.56-3.45-.19-5.23.14a128.94,128.94,0,0,0-20.77,6.7c-1,.42-2,.85-3,1.3h-4.09c2.16-1,4.35-1.88,6.56-2.73,7.78-2.77,15.66-5.73,23.94-6.54C332,464,336.18,468.29,337.56,473.25Z" id="el5myvurwe73v" class="animable" style="transform-origin: 316.89px 468.615px;"></path><path d="M55.36,381.56c1.91,6.66,3.32,13.31,5.54,19.88-3.5-6-5-13-5.54-19.88Z" id="elwy3hc3t1iyo" class="animable" style="transform-origin: 58.13px 391.5px;"></path><path d="M344.49,338.84c.91,6.41,1,13.07-.66,19.37.31-6.5.2-12.88.66-19.37Z" id="elvfaxvqvkxa" class="animable" style="transform-origin: 344.483px 348.525px;"></path><path d="M339.39,430.82a78.19,78.19,0,0,1-3,17.7,78.65,78.65,0,0,1,3-17.7Z" id="ell7h44dsrwhd" class="animable" style="transform-origin: 337.89px 439.67px;"></path><path d="M235.79,420.48a70.78,70.78,0,0,1,4,16.6,71.28,71.28,0,0,1-4-16.6Z" id="el7rhon0btx3u" class="animable" style="transform-origin: 237.79px 428.78px;"></path><path d="M301.37,313.54c2.17,5.32,3.86,11.18,3.21,17-.74-5.74-2.36-11.23-3.21-17Z" id="elg8hsqikmlzf" class="animable" style="transform-origin: 303.045px 322.04px;"></path><path d="M313.39,385.38c1.43,5.72,2.28,11.75,1.4,17.62-.49-5.8-1.34-11.78-1.4-17.62Z" id="elr34a9gt8z7a" class="animable" style="transform-origin: 314.269px 394.19px;"></path><path d="M220.31,355.5A70.82,70.82,0,0,1,224,372.2a71.32,71.32,0,0,1-3.72-16.7Z" id="eltjlqrykolvq" class="animable" style="transform-origin: 222.14px 363.85px;"></path><path d="M267.69,348.34c1.78,5.44,3.15,11.24,2.6,17-.82-5.6-2.17-11.31-2.6-17Z" id="elml36gbmjkpc" class="animable" style="transform-origin: 269.052px 356.84px;"></path><path d="M283.09,431.05c1.69,5.11,3,10.57,2.39,16-.81-5.26-2.05-10.64-2.39-16Z" id="el5l2x6xnx7v6" class="animable" style="transform-origin: 284.361px 439.05px;"></path><path d="M184.17,411.25c-2.47-5.17-4.58-10.74-4.78-16.51,1.54,5.45,3.62,10.95,4.78,16.51Z" id="elt2hexkhv5k" class="animable" style="transform-origin: 181.78px 402.995px;"></path><path d="M204.2,474l-.42-.7-.06-.1c-2.38-4-4.56-8.33-5.17-12.94a15.88,15.88,0,0,1-.15-1.68c.16.51.32,1,.49,1.51,1.5,4.37,3.59,8.63,5,13l.06.2C204.06,473.48,204.13,473.72,204.2,474Z" id="eljtaa3xshzgf" class="animable" style="transform-origin: 201.3px 466.29px;"></path><path d="M132.61,410.82c-2.79-6.1-5.25-12.6-5.61-19.35,1.69,6.41,4.14,12.87,5.61,19.35Z" id="elb1pnk30gjqt" class="animable" style="transform-origin: 129.805px 401.145px;"></path><path d="M153.77,473.25h-.85c-.72-1.29-1.37-2.61-2-4-1.08-2.57-2.22-5.25-2.24-8.09V461c0,.05,0,.11.05.16C150,465.3,152.06,469.24,153.77,473.25Z" id="elrcp1cw2mmp" class="animable" style="transform-origin: 151.225px 467.125px;"></path><path d="M113.23,460.72c-2.47-5.16-4.58-10.73-4.78-16.5,1.54,5.45,3.63,10.94,4.78,16.5Z" id="elxwmhx44an" class="animable" style="transform-origin: 110.84px 452.47px;"></path></g></g><g id="el108glumdgqz"><g style="opacity: 0.2; transform-origin: 404.44px 395.39px;" class="animable" id="elo38uztuf508"><path d="M441.92,329.48c-.05.23-.09.46-.14.7a19.3,19.3,0,0,0-5.6.86c-5.44,1.61-10,5.46-13.39,10C426.9,334.79,434.35,329.53,441.92,329.48Z" id="elqcjus9lqrwp" class="animable" style="transform-origin: 432.355px 335.26px;"></path><path d="M437.13,345.88l-.3.8c-3.47-1.66-7.74-1.55-11.49-.4-5.44,1.61-10,5.46-13.38,10C417.16,348.36,427.74,342,437.13,345.88Z" id="el34pu3fvu89e" class="animable" style="transform-origin: 424.545px 350.495px;"></path><path d="M429.21,364.36c-.12.26-.25.52-.38.78-3.6-2.55-8.53-2.63-12.78-1.32-5.31,1.57-9.74,5.33-13.07,9.74,5.23-7.95,16-14.27,25.37-9.8C428.64,364,428.93,364.15,429.21,364.36Z" id="elotg1liuwqfc" class="animable" style="transform-origin: 416.095px 367.918px;"></path><path d="M419.84,382.47l-.43.77c-3.46-2.35-8.13-2.4-12.17-1.16-5.14,1.51-9.43,5.15-12.65,9.41,5.05-7.69,15.49-13.82,24.56-9.49Z" id="elz9tg79es69e" class="animable" style="transform-origin: 407.215px 386.027px;"></path><path d="M409,401.12c-.14.23-.29.46-.43.7a15.26,15.26,0,0,0-9.07.14c-4.85,1.44-8.91,4.87-12,8.91C392,404.07,400.86,398.58,409,401.12Z" id="elpbnke2193cq" class="animable" style="transform-origin: 398.25px 405.679px;"></path><path d="M397.78,419c-.14.24-.3.47-.45.7-7-.55-13.39,3.76-17.44,9.25,2.75-4,6.48-7.44,11.14-9A16.61,16.61,0,0,1,397.78,419Z" id="eld36wrq3w10i" class="animable" style="transform-origin: 388.835px 423.956px;"></path><path d="M386.25,436.29l-.49.72a21.53,21.53,0,0,0-11.71,8.22C376.71,441.13,381.32,437.41,386.25,436.29Z" id="elkfjjgh9t0ae" class="animable" style="transform-origin: 380.15px 440.76px;"></path><path d="M373.25,454.84l-.68,1a25.33,25.33,0,0,0-5.61,5.46A23.65,23.65,0,0,1,373.25,454.84Z" id="el70ku773ogh" class="animable" style="transform-origin: 370.105px 458.07px;"></path></g></g><polygon points="428.79 243.16 428.79 216.4 454.44 226.37 454.44 252.86 428.79 243.16" style="fill: #90CAF9; transform-origin: 441.615px 234.63px;" id="ela3rmpkccalo" class="animable"></polygon><path d="M428.79,216.4l-58.3,51.87s-59.48,14-82.22,22.17S139.68,366.7,127.79,368.26s-87.37-15.08-87.37-15.08v18.4s55.91,16,89.75,14S277.3,315.6,293.69,309.84s78.13-20.06,78.13-20.06l43.05-27.73,13.92-18.88Z" style="fill: #90CAF9; transform-origin: 234.605px 301.077px;" id="el1r6f8tt9wo8" class="animable"></path><path d="M391.4,358.21c5.63-18.2,18.75-69.32-19.58-68.43s52.59-40.67,52.59-40.67L409.09,350.74Z" style="fill: #90CAF9; transform-origin: 393.401px 303.66px;" id="elgo2i6pr0hxa" class="animable"></path><g id="el9cimqovzwre"><g style="opacity: 0.2; transform-origin: 234.605px 301.077px;" class="animable" id="elbxggtoup3oj"><path d="M428.79,216.4l-58.3,51.87s-59.48,14-82.22,22.17S139.68,366.7,127.79,368.26s-87.37-15.08-87.37-15.08v18.4s55.91,16,89.75,14S277.3,315.6,293.69,309.84s78.13-20.06,78.13-20.06l43.05-27.73,13.92-18.88Z" id="el7rauv6fzi37" class="animable" style="transform-origin: 234.605px 301.077px;"></path><path d="M391.4,358.21c5.63-18.2,18.75-69.32-19.58-68.43s52.59-40.67,52.59-40.67L409.09,350.74Z" id="elll5tl1btpn" class="animable" style="transform-origin: 393.401px 303.66px;"></path></g></g><path d="M440.33,281.84l6.84,44.29-9.79,23.06s.8-23.45-3.17-24.61-10.72,20.71-10.72,20.71Z" style="fill: #90CAF9; transform-origin: 435.33px 315.515px;" id="el7gawb0wx5mi" class="animable"></path><g id="el2zsbwdbvoxi"><path d="M440.33,281.84l6.84,44.29-9.79,23.06s.8-23.45-3.17-24.61-10.72,20.71-10.72,20.71Z" style="opacity: 0.4; transform-origin: 435.33px 315.515px;" class="animable" id="elz6jqr5i9qoi"></path></g><path d="M359.65,473.25c68-94.24,83-204.87,83-204.87l11.77-15.52-25.65-9.69-13.92,18.88S397,387,336.78,473.25Z" style="fill: #90CAF9; transform-origin: 395.6px 358.21px;" id="elmzqgtq7khzl" class="animable"></path><g id="el48tlx0ag7qk"><path d="M359.65,473.25c68-94.24,83-204.87,83-204.87l11.77-15.52-25.65-9.69-13.92,18.88S397,387,336.78,473.25Z" style="opacity: 0.3; transform-origin: 395.6px 358.21px;" class="animable" id="elsh5grslugc"></path></g></g><g id="freepik--Water--inject-16" class="animable animator-hidden" style="transform-origin: 248.88px 445.917px;"><path d="M469.63,480.54c-13.31-3-38-18-55.57-18.33s-39.77,8.46-51.9,7.65c-10-.67-45.53-24.09-58.65-23.75s-24.88,4.65-22.69,7.15,17.5,3.16,12.85,7.15-19.69,3.33-33.08,1.67-31.49,5-40.63,5-32.65-17.3-44.4-22.63-30.14-5.38-27.79-1.85,18.22,7.22,21.23,11,1.91,12.46-6.84,11.46-24.79-20.87-46.57-32.39S72.82,421.36,72,425.25s21.29,7.55,25.94,12.54,15,19,11.48,21S94.5,448.44,84.72,447.11s-9,2-2.39,4.65,17.48,18.3,12,19.3-26.87-14.2-38.08-16.19-14,1.66-10.76,4,23.88,6.65,21,18.41c-1.32,5.47-34,2.44-38.36,2.44" style="fill: rgb(255, 255, 255); transform-origin: 248.88px 451.704px;" id="el4uwylq0kj1" class="animable"></path><path d="M469.63,480.54c-15.37-4.21-29.26-12.78-44.78-16.61-7.74-2.17-15.81-1.86-23.67-.55-12.81,1.77-25.23,6.54-38.25,6.76-3-.06-5.9-1.33-8.67-2.43-14.64-6.27-28.24-14.91-43.38-20a25.43,25.43,0,0,0-11.68-1.08,60.67,60.67,0,0,0-11.67,2.19,21.87,21.87,0,0,0-5.39,2.29c-.76.49-1.62,1.33-1.08,1.87a6.29,6.29,0,0,0,2.48,1.24c3.3,1.09,6.92,1.45,10.06,3.06,3.51,2.07-1.1,4.62-3.3,5.16-9.77,2.41-20,1-29.88,0-12-1.2-23.57,2.72-35.33,4.58a28.3,28.3,0,0,1-6.06.41c-6-1-11.3-4.21-16.57-7-7-3.93-13.69-8.22-20.6-12.15a55,55,0,0,0-10.73-5,58.08,58.08,0,0,0-11.6-2.35,37.8,37.8,0,0,0-8.83,0,5.44,5.44,0,0,0-2.5.85c-.47.24.33,1.08,1.07,1.59,4.16,2.66,9,4,13.54,6,2.26,1.05,4.8,2,6.56,3.94a8.15,8.15,0,0,1-.41,10.29c-7.2,6.06-15.71-2.71-21.36-7-12.17-10.18-24.42-20.7-39.18-26.88-9.11-3.8-18.89-6.51-28.81-6.48-2.36.13-5,.12-6.92,1.53a.84.84,0,0,0-.32.94,4.53,4.53,0,0,0,2,1.72,42.47,42.47,0,0,0,5.47,2.26c6,2.32,12.74,3.56,18,7.53a80.72,80.72,0,0,1,9.91,13.2c1.18,2.1,5.39,9.19.16,8.82-2.5-.56-4.6-2.18-6.71-3.49-4.92-3.21-9.87-6.94-15.68-8.21-2.06-.4-10.3-1.29-7,1.74,1.87,1.66,4.49,2.13,6.45,3.67A36.13,36.13,0,0,1,93,461.81c1.66,2.42,6,10.2-.1,9.48a24.82,24.82,0,0,1-5.7-2c-7.25-3.37-14.09-7.5-21.32-10.82-6.15-2.8-13.33-5.38-20-3.28-2.26,1-1.73,3,.57,4,4.55,2,9.37,3.49,13.6,6.18,4.17,2.43,8.32,7.16,6.43,12.29-4,5.05-31.07,2.09-38.28,2,9.94.41,19.92,1.26,29.86.48a28.21,28.21,0,0,0,5.86-1,4.3,4.3,0,0,0,2.42-1.55,8.46,8.46,0,0,0-1.85-8.25c-4-4.51-9.93-6.56-15.39-8.74-1.79-.8-4.14-1.2-4.94-3.25-.4-2.38,2.78-2.95,4.54-3.16,6.06-.54,12,1.34,17.39,3.89,7.27,3.31,14.15,7.39,21.35,10.74A24.41,24.41,0,0,0,93,470.78c7,.89-2.19-11.59-4.07-13.36a28.47,28.47,0,0,0-4.34-4c-1.58-1.25-3.55-1.72-5.24-2.78a4.78,4.78,0,0,1-2.22-2.24,1.06,1.06,0,0,1,.2-.95,3.35,3.35,0,0,1,2.26-.86,24.85,24.85,0,0,1,6,.38c8,1.7,13.9,7.77,21,11.24,5.89,2.35,1.9-5.22.52-7.43a84.88,84.88,0,0,0-8.81-12c-1.9-2.34-4.74-3.37-7.45-4.49-6-2.5-12.6-3.63-18.17-7.06-.65-.45-1.43-1.36-1.08-2.27a3.14,3.14,0,0,1,1.92-1.58,18.9,18.9,0,0,1,6-.92c10-.05,19.93,2.67,29.14,6.49,14.85,6.18,27.23,16.74,39.43,26.92a77.75,77.75,0,0,0,9.57,7,11.58,11.58,0,0,0,5.41,1.76,6.18,6.18,0,0,0,6.86-6.88A6.26,6.26,0,0,0,167.6,453c-3.21-2.19-7.1-3.45-10.71-5a43.9,43.9,0,0,1-8.19-3.9,3.37,3.37,0,0,1-1.62-2c.06-2.37,4.82-2.28,6.51-2.41a57.31,57.31,0,0,1,17.82,2.68,54.93,54.93,0,0,1,10.9,5.08c6.94,4,13.65,8.27,20.57,12.19,5.17,2.78,10.41,6,16.24,7a28.33,28.33,0,0,0,5.85-.4c11.72-1.83,23.5-5.76,35.55-4.51,7.87.93,15.85,1.71,23.77,1.12,3.3-.38,7-.67,9.53-3,1.8-1.91-3.57-2.93-4.69-3.34-2.77-.9-6.27-1.07-8.58-3-1.75-2.65,5-4.62,6.79-5.21a60.87,60.87,0,0,1,11.8-2.19,26,26,0,0,1,11.92,1.13c7.62,2.45,14.77,6.07,21.92,9.59s14.18,7.32,21.49,10.46c2.74,1.09,5.5,2.34,8.48,2.41,13-.16,25.39-4.85,38.19-6.55,7.87-1.27,16-1.54,23.75.67,15.53,3.89,29.37,12.51,44.74,16.78Z" style="fill: rgb(38, 50, 56); transform-origin: 248.915px 451.531px;" id="elu743ujkd62r" class="animable"></path><path d="M63.92,412.67c-1.54,1.89,5.47,4,7.93,2.33S66.66,409.35,63.92,412.67Z" style="fill: rgb(255, 255, 255); transform-origin: 68.0159px 413.497px;" id="elhdsyv9v65h" class="animable"></path><path d="M63.92,412.67c-1.49,2.54,7,3.33,7.87,1.69.21-.47-.59-1.11-1-1.42-1.89-1.35-5.09-2.29-6.87-.27Zm0,0c1.82-2.05,5.12-1.64,7.34-.45.85.48,2,1.5,1.41,2.61-1.72,2.17-5.71.95-7.73-.16-.67-.37-1.7-1.2-1-2Z" style="fill: rgb(38, 50, 56); transform-origin: 68.2689px 413.63px;" id="el8mtznzgikuc" class="animable"></path><path d="M379.94,456.86c-1.54,1.89,5.47,4,7.93,2.33S382.68,453.54,379.94,456.86Z" style="fill: rgb(255, 255, 255); transform-origin: 384.036px 457.687px;" id="els33qgk7y2bj" class="animable"></path><path d="M379.94,456.86c-1.49,2.54,6.95,3.33,7.87,1.69.21-.46-.59-1.11-1-1.42-1.89-1.35-5.09-2.29-6.87-.27Zm0,0c1.82-2.05,5.12-1.64,7.34-.45.85.48,2,1.5,1.41,2.61-1.72,2.17-5.71,1-7.73-.16-.67-.37-1.7-1.2-1-2Z" style="fill: rgb(38, 50, 56); transform-origin: 384.289px 457.828px;" id="el1yzfju0v2bt" class="animable"></path><path d="M72.29,444.3c-.64,1.89,2.24,4,3.26,2.33S73.41,441,72.29,444.3Z" style="fill: rgb(255, 255, 255); transform-origin: 73.974px 445.131px;" id="el8vomvu2ciou" class="animable"></path><path d="M72.29,444.3a2.08,2.08,0,0,0,2.43,2.47c1-.65.34-2.27-.35-3.14s-1.74-.37-2.08.67Zm0,0c.87-3,4.2-.42,3.93,1.85a1.7,1.7,0,0,1-2.94.93,2.69,2.69,0,0,1-1-2.78Z" style="fill: rgb(38, 50, 56); transform-origin: 74.2205px 445.287px;" id="eljc1qz7j0k9m" class="animable"></path><path d="M270.58,454.76c-.64,1.88,2.25,4,3.26,2.33S271.7,451.43,270.58,454.76Z" style="fill: rgb(255, 255, 255); transform-origin: 272.263px 455.584px;" id="elep2fbroo98" class="animable"></path><path d="M270.58,454.76a2.09,2.09,0,0,0,2.43,2.47c1-.66.34-2.28-.35-3.14s-1.74-.38-2.08.67Zm0,0c.87-3,4.2-.43,3.93,1.84a1.7,1.7,0,0,1-2.94.93,2.7,2.7,0,0,1-1-2.77Z" style="fill: rgb(38, 50, 56); transform-origin: 272.512px 455.74px;" id="el15cxfsb4lja" class="animable"></path><path d="M144.63,431.57c-1.38,1.44,2.22,5,4.07,4S147.06,429,144.63,431.57Z" style="fill: rgb(255, 255, 255); transform-origin: 146.771px 433.322px;" id="elwcvjm6o0vrr" class="animable"></path><path d="M144.63,431.57c-1.38,1.69,2.76,4.73,4,3.4.55-1.85-2.07-5.42-4-3.4Zm0,0c2-2.25,5.93,1.43,4.88,3.89-1.75,2.56-6.38-1.89-4.88-3.89Z" style="fill: rgb(38, 50, 56); transform-origin: 147.01px 433.552px;" id="else1r5g40r8" class="animable"></path><path d="M66.11,426c2-.69-.3-4.3-2.44-2.5S64.06,426.67,66.11,426Z" style="fill: rgb(255, 255, 255); transform-origin: 64.867px 424.588px;" id="elsgkumw3efl" class="animable"></path><path d="M66.11,426c1.06-.38.79-1.61,0-2.16a1.58,1.58,0,0,0-2.06,0c-2.14,1.43.41,2.76,2,2.18Zm0,0c-1.22.48-4,.34-3.6-1.63a2.44,2.44,0,0,1,2.65-1.77c1.5.2,2.67,2.78,1,3.4Z" style="fill: rgb(38, 50, 56); transform-origin: 64.7242px 424.407px;" id="elbqzay18922g" class="animable"></path><path d="M82.76,443.61c2-.69-.29-4.29-2.43-2.49S80.72,444.3,82.76,443.61Z" style="fill: rgb(255, 255, 255); transform-origin: 81.5228px 442.206px;" id="elkcuvugwn5em" class="animable"></path><path d="M82.76,443.61c1.07-.38.8-1.61,0-2.15a1.58,1.58,0,0,0-2,0c-2.15,1.43.4,2.76,2,2.18Zm0,0c-1.21.48-4,.34-3.6-1.62a2.46,2.46,0,0,1,2.66-1.78c1.49.21,2.67,2.78.94,3.4Z" style="fill: rgb(38, 50, 56); transform-origin: 81.3699px 442.017px;" id="eledh4c62abo8" class="animable"></path><path d="M43.67,466.6c2-.69-.29-4.3-2.44-2.5S41.63,467.29,43.67,466.6Z" style="fill: rgb(255, 255, 255); transform-origin: 42.4264px 465.191px;" id="el10qboh6j96h" class="animable"></path><path d="M43.67,466.6c1.07-.38.8-1.61,0-2.15a1.59,1.59,0,0,0-2.06,0c-2.14,1.43.41,2.76,2,2.18Zm0,0c-1.21.48-4,.34-3.6-1.63a2.45,2.45,0,0,1,2.65-1.77c1.5.21,2.68,2.78,1,3.4Z" style="fill: rgb(38, 50, 56); transform-origin: 42.2865px 465.007px;" id="eldqy19y4lll" class="animable"></path><path d="M53.9,449.68c1.09-.37-.16-2.28-1.3-1.33S52.81,450.05,53.9,449.68Z" style="fill: rgb(255, 255, 255); transform-origin: 53.2432px 448.932px;" id="eldii8quofi16" class="animable"></path><path d="M53.9,449.68c.83-.33,0-1.33-.58-1.15a1.68,1.68,0,0,0-.7.49c-.06,0-.15.13,0,.31a1.2,1.2,0,0,0,1.3.35Zm0,0a2.44,2.44,0,0,1-1.59.06c-.85-.33-.54-1.46.06-1.83a1.24,1.24,0,0,1,1.83.37c.29.46.3,1.25-.3,1.4Z" style="fill: rgb(38, 50, 56); transform-origin: 53.0902px 448.75px;" id="elhczh96e9qcq" class="animable"></path><path d="M76.74,440.78c1.09-.36-.16-2.28-1.29-1.32S75.65,441.15,76.74,440.78Z" style="fill: rgb(255, 255, 255); transform-origin: 76.0896px 440.036px;" id="eloj5nodwmbo" class="animable"></path><path d="M76.74,440.78c.83-.33,0-1.33-.58-1.15a1.68,1.68,0,0,0-.7.49c-.06,0-.15.13,0,.31a1.2,1.2,0,0,0,1.3.35Zm0,0a2.44,2.44,0,0,1-1.59.06c-.85-.33-.54-1.46.06-1.83a1.24,1.24,0,0,1,1.83.37c.29.46.3,1.25-.3,1.4Z" style="fill: rgb(38, 50, 56); transform-origin: 75.9302px 439.85px;" id="elt486n6nhgxm" class="animable"></path><path d="M272.91,449.52c1.09-.36-.15-2.28-1.29-1.32S271.83,449.89,272.91,449.52Z" style="fill: rgb(255, 255, 255); transform-origin: 272.259px 448.776px;" id="elyirhhxunwx" class="animable"></path><path d="M272.91,449.52c.84-.33,0-1.33-.57-1.15a1.71,1.71,0,0,0-.71.49c-.05,0-.14.13,0,.31a1.2,1.2,0,0,0,1.3.35Zm0,0a2.44,2.44,0,0,1-1.59.06c-.85-.33-.53-1.46.07-1.83a1.24,1.24,0,0,1,1.83.37c.28.46.3,1.25-.31,1.4Z" style="fill: rgb(38, 50, 56); transform-origin: 272.105px 448.59px;" id="eln8tmqdabjvp" class="animable"></path><path d="M143.7,438.09c1.22-.42-.18-2.58-1.47-1.5S142.47,438.5,143.7,438.09Z" style="fill: rgb(255, 255, 255); transform-origin: 142.955px 437.244px;" id="el04idnmlkc6ok" class="animable"></path><path d="M143.7,438.09c.94-.37.05-1.52-.65-1.36a1.6,1.6,0,0,0-.86.59c-.37.61,1,1,1.51.77Zm0,0a2.72,2.72,0,0,1-1.79,0c-.92-.39-.56-1.57.1-2a1.36,1.36,0,0,1,2,.38c.33.51.36,1.39-.31,1.57Z" style="fill: rgb(38, 50, 56); transform-origin: 142.796px 437.024px;" id="elrtl6xc17yn" class="animable"></path><path d="M77.9,419.84c1.23-.41-.18-2.58-1.47-1.5S76.67,420.26,77.9,419.84Z" style="fill: rgb(255, 255, 255); transform-origin: 77.1568px 418.996px;" id="el65estuqdxg" class="animable"></path><path d="M77.9,419.84c.94-.37,0-1.52-.65-1.36a1.75,1.75,0,0,0-.86.6c-.36.6,1,1,1.51.76Zm0,0a2.69,2.69,0,0,1-1.78.05c-.93-.4-.57-1.57.09-2a1.36,1.36,0,0,1,2,.39c.34.51.36,1.39-.31,1.56Z" style="fill: rgb(38, 50, 56); transform-origin: 76.9994px 418.813px;" id="eloavohltpux" class="animable"></path><path d="M241.75,468.06c-1.55,1.89,5.47,4,7.93,2.33S244.49,464.74,241.75,468.06Z" style="fill: rgb(38, 50, 56); transform-origin: 245.845px 468.887px;" id="el2me2390zzl" class="animable"></path><path d="M134.21,454.76c-.64,1.88,2.25,4,3.26,2.33S135.33,451.43,134.21,454.76Z" style="fill: rgb(38, 50, 56); transform-origin: 135.893px 455.584px;" id="elbsqw1t65s1c" class="animable"></path><path d="M373.2,472c-1.37,1.43,2.22,5,4.08,4S375.63,469.41,373.2,472Z" style="fill: rgb(38, 50, 56); transform-origin: 375.349px 473.748px;" id="elhoyzq6pf5bq" class="animable"></path><path d="M255.74,468.18c2.05-.68-.29-4.29-2.43-2.49S253.7,468.87,255.74,468.18Z" style="fill: rgb(38, 50, 56); transform-origin: 254.514px 466.777px;" id="el9hd52gmagzc" class="animable"></path><path d="M107.67,442.28c2-.68-.3-4.29-2.44-2.49S105.63,443,107.67,442.28Z" style="fill: rgb(38, 50, 56); transform-origin: 106.428px 440.882px;" id="eljdmnornhmes" class="animable"></path><path d="M133.7,451.6c1.09-.36-.16-2.28-1.3-1.32S132.61,452,133.7,451.6Z" style="fill: rgb(38, 50, 56); transform-origin: 133.043px 450.861px;" id="elcncp47qq73l" class="animable"></path><path d="M173.87,450.52c1.08-.36-.16-2.28-1.3-1.32S172.78,450.89,173.87,450.52Z" style="fill: rgb(38, 50, 56); transform-origin: 173.211px 449.776px;" id="elsk0aafd7ne" class="animable"></path><path d="M367.7,475.51c1.23-.41-.17-2.58-1.46-1.5S366.48,475.93,367.7,475.51Z" style="fill: rgb(38, 50, 56); transform-origin: 366.963px 474.666px;" id="elb9mk9ny16p7" class="animable"></path></g><defs>     <filter id="active" height="200%">         <feMorphology in="SourceAlpha" result="DILATED" operator="dilate" radius="2"></feMorphology>                <feFlood flood-color="#32DFEC" flood-opacity="1" result="PINK"></feFlood>        <feComposite in="PINK" in2="DILATED" operator="in" result="OUTLINE"></feComposite>        <feMerge>            <feMergeNode in="OUTLINE"></feMergeNode>            <feMergeNode in="SourceGraphic"></feMergeNode>        </feMerge>    </filter>    <filter id="hover" height="200%">        <feMorphology in="SourceAlpha" result="DILATED" operator="dilate" radius="2"></feMorphology>                <feFlood flood-color="#ff0000" flood-opacity="0.5" result="PINK"></feFlood>        <feComposite in="PINK" in2="DILATED" operator="in" result="OUTLINE"></feComposite>        <feMerge>            <feMergeNode in="OUTLINE"></feMergeNode>            <feMergeNode in="SourceGraphic"></feMergeNode>        </feMerge>            <feColorMatrix type="matrix" values="0   0   0   0   0                0   1   0   0   0                0   0   0   0   0                0   0   0   1   0 "></feColorMatrix>    </filter></defs></svg>