<svg xmlns="http://www.w3.org/2000/svg" viewBox="0 0 1440 250">
  <path fill="#88b9d7" fill-opacity="1" d="M0,64L30,106.7C60,149,120,235,180,261.3C240,288,300,256,360,218.7C420,181,480,139,540,112C600,85,660,75,720,90.7C780,107,840,149,900,144C960,139,1020,85,1080,74.7C1140,64,1200,96,1260,128C1320,160,1380,192,1410,208L1440,224L1440,320L1410,320C1380,320,1320,320,1260,320C1200,320,1140,320,1080,320C1020,320,960,320,900,320C840,320,780,320,720,320C660,320,600,320,540,320C480,320,420,320,360,320C300,320,240,320,180,320C120,320,60,320,30,320L0,320Z"></path>
</svg>